<svg width="312" height="70" viewBox="0 0 312 70" fill="none" xmlns="http://www.w3.org/2000/svg">
<path d="M55.2969 7.08594C55.2656 6.92969 55.2135 6.66927 55.1406 6.30469C54.8438 4.74219 54.5651 3.7474 54.3047 3.32031C54.0234 3.83594 53.5911 4.90885 53.0078 6.53906C52.8203 7.0651 52.6901 7.42188 52.6172 7.60938C52.862 7.57292 53.2526 7.49219 53.7891 7.36719C54.4766 7.20573 54.9792 7.11198 55.2969 7.08594ZM60.5469 13.125C60.9635 13.5938 61.2396 13.9661 61.375 14.2422C61.5 14.4922 61.5625 14.737 61.5625 14.9766C61.5625 15.1745 61.5182 15.3672 61.4297 15.5547C61.2891 15.8516 61.0833 16 60.8125 16C60.3438 16 59.724 15.5 58.9531 14.5C58.4792 13.8802 58.138 13.3724 57.9297 12.9766C57.7578 12.6484 57.5182 12.1406 57.2109 11.4531C56.8776 10.7135 56.6198 10.1719 56.4375 9.82812C56.2708 9.51562 55.8802 9.35938 55.2656 9.35938C55.1406 9.35938 54.9635 9.36719 54.7344 9.38281C54.5729 9.39323 54.4609 9.39844 54.3984 9.39844C53.7839 9.41406 52.875 9.53646 51.6719 9.76562C50.3177 12.0104 49.4792 13.3385 49.1562 13.75C48.6146 14.4323 48.1458 14.7734 47.75 14.7734C47.6458 14.7734 47.5469 14.7552 47.4531 14.7188C47.3073 14.6562 47.2083 14.5495 47.1562 14.3984C47.1354 14.3411 47.125 14.2708 47.125 14.1875C47.125 13.7344 47.4479 12.8906 48.0938 11.6562C48.5208 10.849 48.7344 10.3724 48.7344 10.2266V10.2109C48.7292 10.1641 48.6641 10.1406 48.5391 10.1406C48.4609 10.1406 48.3281 10.1536 48.1406 10.1797C47.9531 10.2057 47.8177 10.2188 47.7344 10.2188C47.5365 10.2188 47.3984 10.1615 47.3203 10.0469C47.2839 9.98958 47.2656 9.92448 47.2656 9.85156C47.2656 9.76823 47.2891 9.67448 47.3359 9.57031C47.5078 9.15885 47.7214 8.85156 47.9766 8.64844C48.1953 8.48177 48.5365 8.32292 49 8.17188C49.8021 7.91667 50.6615 6.61979 51.5781 4.28125C51.6146 4.18229 51.6875 3.97917 51.7969 3.67188C52.1615 2.60938 52.4844 1.83073 52.7656 1.33594C53.2604 0.455729 53.8021 0.0104167 54.3906 0C55.5573 0 56.25 0.697917 56.4688 2.09375C56.724 3.73958 57.0599 5.19792 57.4766 6.46875C57.5026 6.54167 57.5339 6.64583 57.5703 6.78125C57.6432 7.0625 57.7188 7.23958 57.7969 7.3125C57.8542 7.375 57.9505 7.40625 58.0859 7.40625C58.1276 7.40625 58.1719 7.40365 58.2188 7.39844C58.2865 7.39323 58.388 7.3776 58.5234 7.35156C58.7943 7.29948 59 7.27344 59.1406 7.27344C59.4896 7.27344 59.763 7.38802 59.9609 7.61719C60.0651 7.73698 60.1172 7.86198 60.1172 7.99219C60.1172 8.05469 60.1042 8.11979 60.0781 8.1875C59.9375 8.59375 59.4089 8.9401 58.4922 9.22656L58.5703 9.44531C59.1693 10.987 59.7057 12.0677 60.1797 12.6875C60.2474 12.776 60.3698 12.9219 60.5469 13.125ZM66.6953 11.6562C66.1693 11.8438 65.6771 12.0859 65.2188 12.3828C64.651 12.7422 64.3229 13.0781 64.2344 13.3906C64.2188 13.4427 64.2109 13.4948 64.2109 13.5469C64.2109 13.6667 64.2526 13.7786 64.3359 13.8828L64.5469 13.9062C65.0052 13.9062 65.4661 13.6536 65.9297 13.1484C66.3724 12.6589 66.6276 12.1615 66.6953 11.6562ZM70.6094 13.4922C71.0365 13.9818 71.25 14.3958 71.25 14.7344C71.25 14.8385 71.2292 14.9375 71.1875 15.0312C70.9115 15.625 70.5859 15.9219 70.2109 15.9219C69.7578 15.9219 69.1484 15.3125 68.3828 14.0938C68.1953 13.7969 68.0625 13.5964 67.9844 13.4922C67.4792 14.5755 66.4922 15.3177 65.0234 15.7188C64.3411 15.9062 63.7135 16 63.1406 16C62.3281 16 61.9219 15.7578 61.9219 15.2734C61.875 15.0339 61.8516 14.7943 61.8516 14.5547C61.8516 13.0443 62.8281 11.625 64.7812 10.2969C64.8854 10.2292 65.1198 10.1224 65.4844 9.97656C66.3854 9.61719 66.8359 9.32812 66.8359 9.10938C66.7995 8.76562 66.7812 8.2526 66.7812 7.57031C66.7812 7.22656 66.7865 6.84115 66.7969 6.41406C66.8073 5.8776 66.8125 5.43229 66.8125 5.07812C66.8125 4.8125 66.8099 4.59896 66.8047 4.4375L66.7969 4.35938C66.7865 4.18229 66.7812 4.01302 66.7812 3.85156C66.7812 2.83594 66.9375 2.16667 67.25 1.84375C67.4635 1.61979 67.7474 1.50781 68.1016 1.50781C68.1589 1.50781 68.2161 1.51042 68.2734 1.51562C68.4453 1.53125 68.6068 1.68229 68.7578 1.96875C68.8828 2.21354 68.9635 2.46094 69 2.71094C69.0833 3.25781 69.125 4.19792 69.125 5.53125V5.99219C69.125 6.16927 69.1224 6.4401 69.1172 6.80469C69.112 7.00781 69.1094 7.20312 69.1094 7.39062C69.1094 8.60417 69.1823 9.52344 69.3281 10.1484C69.5573 11.1641 69.9844 12.2786 70.6094 13.4922ZM76.7109 11.6562C76.1849 11.8438 75.6927 12.0859 75.2344 12.3828C74.6667 12.7422 74.3385 13.0781 74.25 13.3906C74.2344 13.4427 74.2266 13.4948 74.2266 13.5469C74.2266 13.6667 74.2682 13.7786 74.3516 13.8828L74.5625 13.9062C75.0208 13.9062 75.4818 13.6536 75.9453 13.1484C76.388 12.6589 76.6432 12.1615 76.7109 11.6562ZM80.625 13.4922C81.0521 13.9818 81.2656 14.3958 81.2656 14.7344C81.2656 14.8385 81.2448 14.9375 81.2031 15.0312C80.9271 15.625 80.6016 15.9219 80.2266 15.9219C79.7734 15.9219 79.1641 15.3125 78.3984 14.0938C78.2109 13.7969 78.0781 13.5964 78 13.4922C77.4948 14.5755 76.5078 15.3177 75.0391 15.7188C74.3568 15.9062 73.7292 16 73.1562 16C72.3438 16 71.9375 15.7578 71.9375 15.2734C71.8906 15.0339 71.8672 14.7943 71.8672 14.5547C71.8672 13.0443 72.8438 11.625 74.7969 10.2969C74.901 10.2292 75.1354 10.1224 75.5 9.97656C76.401 9.61719 76.8516 9.32812 76.8516 9.10938C76.8151 8.76562 76.7969 8.2526 76.7969 7.57031C76.7969 7.22656 76.8021 6.84115 76.8125 6.41406C76.8229 5.8776 76.8281 5.43229 76.8281 5.07812C76.8281 4.8125 76.8255 4.59896 76.8203 4.4375L76.8125 4.35938C76.8021 4.18229 76.7969 4.01302 76.7969 3.85156C76.7969 2.83594 76.9531 2.16667 77.2656 1.84375C77.4792 1.61979 77.763 1.50781 78.1172 1.50781C78.1745 1.50781 78.2318 1.51042 78.2891 1.51562C78.4609 1.53125 78.6224 1.68229 78.7734 1.96875C78.8984 2.21354 78.9792 2.46094 79.0156 2.71094C79.099 3.25781 79.1406 4.19792 79.1406 5.53125V5.99219C79.1406 6.16927 79.138 6.4401 79.1328 6.80469C79.1276 7.00781 79.125 7.20312 79.125 7.39062C79.125 8.60417 79.1979 9.52344 79.3438 10.1484C79.5729 11.1641 80 12.2786 80.625 13.4922ZM98.6562 8C98.7448 8.16667 98.7891 8.32552 98.7891 8.47656C98.7891 8.59635 98.763 8.70833 98.7109 8.8125C98.5026 9.23958 97.9688 9.53125 97.1094 9.6875C96.5781 9.78125 95.7682 9.86979 94.6797 9.95312L94.3672 9.97656C94.362 10.013 94.3542 10.1172 94.3438 10.2891C94.3073 10.7266 94.2891 11.0677 94.2891 11.3125C94.2891 11.4167 94.2917 11.5026 94.2969 11.5703C94.3542 12.138 94.3906 12.8516 94.4062 13.7109V14.0625C94.4062 15.2552 94.3047 15.8854 94.1016 15.9531C94.0911 15.9844 93.9557 16 93.6953 16C93.0651 16 92.724 15.974 92.6719 15.9219C92.2344 15.4948 92.0156 14.5547 92.0156 13.1016C92.0156 12.6589 92.0365 12.1719 92.0781 11.6406C92.0833 11.5417 92.0859 11.4453 92.0859 11.3516C92.0859 10.8984 92 10.5781 91.8281 10.3906C91.6771 10.224 91.3438 10.1406 90.8281 10.1406H90.6875C90.6042 10.1458 90.526 10.1484 90.4531 10.1484C90.1042 10.1484 89.8385 10.1172 89.6562 10.0547C89.2969 9.92969 89.0391 9.66667 88.8828 9.26562V9.21875C88.8828 9.02604 88.9479 8.86458 89.0781 8.73438C89.3698 8.43229 89.9115 8.28125 90.7031 8.28125C90.8802 8.28125 91.0312 8.28906 91.1562 8.30469C91.2552 8.3151 91.3464 8.32031 91.4297 8.32031C91.6276 8.32031 91.8177 8.28385 92 8.21094C91.9375 7.52344 91.9062 6.84635 91.9062 6.17969C91.9062 5.66406 91.9245 5.15625 91.9609 4.65625C92.0807 3.13542 92.3698 2.1224 92.8281 1.61719C93.0521 1.36719 93.3177 1.24219 93.625 1.24219H93.7031C93.8281 1.24219 93.9375 1.29167 94.0312 1.39062C94.2396 1.61458 94.3438 2.21354 94.3438 3.1875C94.3438 3.76042 94.3073 4.46094 94.2344 5.28906C94.1875 5.83073 94.1615 6.1849 94.1562 6.35156C94.151 6.53906 94.1484 6.78385 94.1484 7.08594V8.01562C94.1484 8.09896 94.3073 8.14062 94.625 8.14062C94.6927 8.14062 94.7682 8.13802 94.8516 8.13281C95.3359 8.10677 95.9375 8.02344 96.6562 7.88281C96.6927 7.8724 96.7734 7.85156 96.8984 7.82031C97.3411 7.70573 97.6797 7.64844 97.9141 7.64844C98.2891 7.64844 98.5365 7.76562 98.6562 8ZM100.555 10.8281C100.383 11.1562 100.297 11.5312 100.297 11.9531V12.0625C100.307 12.5365 100.411 12.9375 100.609 13.2656C100.792 13.5729 101.01 13.7266 101.266 13.7266C101.552 13.7266 101.857 13.5339 102.18 13.1484C102.513 12.7526 102.701 12.2448 102.742 11.625C102.747 11.5417 102.75 11.4609 102.75 11.3828C102.75 10.862 102.63 10.4115 102.391 10.0312C102.25 9.8125 102.065 9.70312 101.836 9.70312C101.565 9.70312 101.289 9.83333 101.008 10.0938C100.737 10.3385 100.586 10.5833 100.555 10.8281ZM102.047 7.67969C102.875 7.67969 103.536 7.99219 104.031 8.61719C104.526 9.24219 104.773 10.0781 104.773 11.125C104.773 12.3594 104.456 13.4531 103.82 14.4062C103.102 15.4688 102.185 16 101.07 16C100.852 16 100.628 15.9766 100.398 15.9297C99.5182 15.7578 98.8802 15.2031 98.4844 14.2656C98.2188 13.6302 98.0859 12.8984 98.0859 12.0703C98.0859 11.862 98.0938 11.6484 98.1094 11.4297C98.1927 10.2891 98.5807 9.38021 99.2734 8.70312C99.9609 8.02083 100.839 7.67969 101.906 7.67969H102.047ZM108.633 11.8281C108.674 12.3125 108.695 12.6641 108.695 12.8828V12.9922C109.237 12.9557 109.721 12.7422 110.148 12.3516C110.57 11.9557 110.826 11.4818 110.914 10.9297C110.924 10.8776 110.93 10.8281 110.93 10.7812C110.93 10.5729 110.859 10.388 110.719 10.2266C110.495 9.96094 110.146 9.78125 109.672 9.6875C109.469 9.64583 109.286 9.625 109.125 9.625C108.948 9.625 108.799 9.65104 108.68 9.70312C108.602 9.81771 108.562 10.0938 108.562 10.5312C108.562 10.8646 108.586 11.2969 108.633 11.8281ZM113.062 10.1484C113.177 10.4141 113.234 10.6875 113.234 10.9688C113.234 11.7188 112.828 12.5156 112.016 13.3594C111.219 14.1823 110.352 14.6875 109.414 14.875C109.049 14.9479 108.836 15.0286 108.773 15.1172C108.737 15.1641 108.719 15.2656 108.719 15.4219C108.719 15.5052 108.724 15.6042 108.734 15.7188C108.76 16.0156 108.773 16.2656 108.773 16.4688L108.781 16.75C108.797 18.526 108.867 19.9323 108.992 20.9688C108.997 21.0312 109 21.0911 109 21.1484C109 21.362 108.945 21.5312 108.836 21.6562C108.716 21.7917 108.544 21.8594 108.32 21.8594C108.013 21.8594 107.664 21.7422 107.273 21.5078C106.893 21.2786 106.641 20.7474 106.516 19.9141C106.453 19.4714 106.422 18.8151 106.422 17.9453V17.1484C106.354 14.9818 106.32 13.2344 106.32 11.9062C106.32 10.5312 106.357 9.60417 106.43 9.125C106.477 8.46875 106.581 8.03385 106.742 7.82031C106.857 7.67448 107.044 7.60156 107.305 7.60156H107.531C108.583 7.60156 109.638 7.8099 110.695 8.22656C111.94 8.71094 112.729 9.35156 113.062 10.1484ZM115.5 5.86719C115.151 5.84635 114.888 5.75 114.711 5.57812C114.565 5.44271 114.492 5.28125 114.492 5.09375V5.07031C114.503 4.78385 114.646 4.53385 114.922 4.32031C115.172 4.13281 115.458 4.03906 115.781 4.03906C115.844 4.03906 115.906 4.04167 115.969 4.04688C116.302 4.04688 116.565 4.11979 116.758 4.26562C116.94 4.40104 117.031 4.58073 117.031 4.80469C117.031 5.07552 116.909 5.31771 116.664 5.53125C116.404 5.76562 116.089 5.88281 115.719 5.88281C115.651 5.88281 115.578 5.8776 115.5 5.86719ZM116.023 7.625C116.383 7.625 116.562 7.77865 116.562 8.08594C116.797 9.38802 116.914 10.8359 116.914 12.4297C116.914 12.6172 116.911 12.8099 116.906 13.0078L116.859 15.3594C116.859 15.4792 116.701 15.6172 116.383 15.7734C116.076 15.9245 115.828 16 115.641 16C115.542 16 115.464 15.9766 115.406 15.9297C114.984 15.5807 114.737 15.0312 114.664 14.2812C114.648 14.1354 114.641 13.9635 114.641 13.7656C114.641 13.3385 114.672 12.7812 114.734 12.0938C114.76 11.8125 114.779 11.6042 114.789 11.4688C114.826 10.9583 114.844 10.4297 114.844 9.88281C114.844 9.70052 114.841 9.51562 114.836 9.32812C114.831 9.21354 114.818 9.07812 114.797 8.92188C114.792 8.875 114.789 8.82812 114.789 8.78125C114.789 8.53125 114.88 8.27604 115.062 8.01562C115.245 7.75521 115.565 7.625 116.023 7.625ZM120.617 12.7734C120.799 13.3151 121.185 13.5859 121.773 13.5859C121.867 13.5859 121.966 13.5781 122.07 13.5625C122.56 13.5 123.323 13.2318 124.359 12.7578C125.443 12.2682 126.156 11.9922 126.5 11.9297C126.609 11.9089 126.708 11.8984 126.797 11.8984C127.245 11.8984 127.482 12.1406 127.508 12.625C127.346 13.6198 126.029 14.5885 123.555 15.5312C122.732 15.8438 122.003 16 121.367 16C120.372 16 119.602 15.6198 119.055 14.8594C118.664 14.3177 118.458 13.6354 118.438 12.8125V12.625C118.438 11.9115 118.573 11.2031 118.844 10.5C119.146 9.71875 119.557 9.09115 120.078 8.61719C120.63 8.1224 121.227 7.875 121.867 7.875H121.922C122.516 7.875 122.904 8.1224 123.086 8.61719C123.133 8.7474 123.156 8.86979 123.156 8.98438C123.156 9.33333 122.951 9.6276 122.539 9.86719C121.69 10.3776 121.172 10.7292 120.984 10.9219C120.656 11.2604 120.492 11.6484 120.492 12.0859C120.492 12.2995 120.534 12.5286 120.617 12.7734ZM128.109 10.2812L128.172 10.3359C128.417 10.4036 129.656 10.8464 131.891 11.6641C132.708 11.9661 133.271 12.3073 133.578 12.6875C133.781 12.9375 133.883 13.2161 133.883 13.5234C133.883 13.7943 133.805 14.0859 133.648 14.3984C133.477 14.7318 133.044 15.0391 132.352 15.3203C131.706 15.5807 130.966 15.7708 130.133 15.8906C129.638 15.9635 129.185 16 128.773 16C128.482 16 128.208 15.9818 127.953 15.9453C127.271 15.8516 126.865 15.638 126.734 15.3047C126.604 14.987 126.539 14.6979 126.539 14.4375C126.539 14.2396 126.576 14.0573 126.648 13.8906C126.768 13.6094 126.956 13.4688 127.211 13.4688C127.346 13.4688 127.497 13.5052 127.664 13.5781C128.435 13.9062 129.104 14.0703 129.672 14.0703C130.276 14.0703 130.763 13.8828 131.133 13.5078C131.039 13.5078 129.984 13.1953 127.969 12.5703C126.464 12.1068 125.711 11.4922 125.711 10.7266C125.695 10.6172 125.688 10.5104 125.688 10.4062C125.688 9.64583 126.13 8.99219 127.016 8.44531C127.844 7.9349 128.672 7.67969 129.5 7.67969H129.641C129.938 7.67969 130.211 7.75521 130.461 7.90625C130.695 8.04688 130.857 8.22135 130.945 8.42969C130.982 8.52344 131 8.61198 131 8.69531C131 8.8151 130.966 8.92708 130.898 9.03125C130.763 9.23438 130.51 9.38021 130.141 9.46875C129.24 9.61458 128.786 9.6875 128.781 9.6875C128.292 9.80729 128.047 9.95052 128.047 10.1172C128.047 10.1901 128.068 10.2448 128.109 10.2812ZM137.922 13.9375C138.073 14.1979 138.148 14.5156 138.148 14.8906C138.148 15.0417 138.135 15.2031 138.109 15.375C138.021 15.9688 137.802 16.5703 137.453 17.1797C137.073 17.8359 136.617 18.3516 136.086 18.7266C135.555 19.0964 135.008 19.2812 134.445 19.2812H134.344C134.219 19.2812 134.122 19.2292 134.055 19.125C134.023 19.0729 134.008 19 134.008 18.9062C134.008 18.4323 134.404 17.4193 135.195 15.8672C135.279 15.7057 135.333 15.599 135.359 15.5469C135.448 15.3542 135.503 15.0443 135.523 14.6172C135.549 14.1693 135.615 13.8646 135.719 13.7031C135.88 13.4583 136.174 13.3359 136.602 13.3359C136.669 13.3359 136.742 13.3385 136.82 13.3438C137.326 13.3438 137.693 13.5417 137.922 13.9375ZM149.984 10.2812L150.047 10.3359C150.292 10.4036 151.531 10.8464 153.766 11.6641C154.583 11.9661 155.146 12.3073 155.453 12.6875C155.656 12.9375 155.758 13.2161 155.758 13.5234C155.758 13.7943 155.68 14.0859 155.523 14.3984C155.352 14.7318 154.919 15.0391 154.227 15.3203C153.581 15.5807 152.841 15.7708 152.008 15.8906C151.513 15.9635 151.06 16 150.648 16C150.357 16 150.083 15.9818 149.828 15.9453C149.146 15.8516 148.74 15.638 148.609 15.3047C148.479 14.987 148.414 14.6979 148.414 14.4375C148.414 14.2396 148.451 14.0573 148.523 13.8906C148.643 13.6094 148.831 13.4688 149.086 13.4688C149.221 13.4688 149.372 13.5052 149.539 13.5781C150.31 13.9062 150.979 14.0703 151.547 14.0703C152.151 14.0703 152.638 13.8828 153.008 13.5078C152.914 13.5078 151.859 13.1953 149.844 12.5703C148.339 12.1068 147.586 11.4922 147.586 10.7266C147.57 10.6172 147.562 10.5104 147.562 10.4062C147.562 9.64583 148.005 8.99219 148.891 8.44531C149.719 7.9349 150.547 7.67969 151.375 7.67969H151.516C151.812 7.67969 152.086 7.75521 152.336 7.90625C152.57 8.04688 152.732 8.22135 152.82 8.42969C152.857 8.52344 152.875 8.61198 152.875 8.69531C152.875 8.8151 152.841 8.92708 152.773 9.03125C152.638 9.23438 152.385 9.38021 152.016 9.46875C151.115 9.61458 150.661 9.6875 150.656 9.6875C150.167 9.80729 149.922 9.95052 149.922 10.1172C149.922 10.1901 149.943 10.2448 149.984 10.2812ZM163.977 13.7031C164.32 14.6667 164.492 15.3698 164.492 15.8125C164.492 16.3542 164.26 16.625 163.797 16.625C163.479 16.625 163.174 16.5026 162.883 16.2578C162.477 15.9193 162.159 15.1719 161.93 14.0156C161.862 13.6719 161.81 13.4271 161.773 13.2812C161.393 13.9688 160.87 14.5807 160.203 15.1172C159.49 15.6901 158.844 15.9766 158.266 15.9766C157.797 15.9766 157.432 15.776 157.172 15.375C156.896 14.9427 156.758 14.2969 156.758 13.4375C156.758 12.5417 156.927 11.487 157.266 10.2734C157.693 8.71615 158.219 7.92708 158.844 7.90625H158.852C159.081 7.90625 159.258 7.98177 159.383 8.13281C159.508 8.28906 159.57 8.57292 159.57 8.98438C159.57 9.59375 159.438 10.4792 159.172 11.6406C158.969 12.5365 158.867 13.1224 158.867 13.3984C158.867 13.4974 158.88 13.5573 158.906 13.5781C158.932 13.5781 158.969 13.5651 159.016 13.5391C159.729 13.1016 160.258 12.4635 160.602 11.625C160.799 11.1406 160.974 10.4297 161.125 9.49219C161.219 8.90365 161.307 8.50781 161.391 8.30469C161.526 7.98177 161.732 7.82031 162.008 7.82031C162.549 7.82031 162.93 8.19531 163.148 8.94531C163.279 9.38281 163.372 10.1094 163.43 11.125C163.461 11.6615 163.492 12.0208 163.523 12.2031C163.581 12.5208 163.732 13.0208 163.977 13.7031ZM167.664 12.7734C167.846 13.3151 168.232 13.5859 168.82 13.5859C168.914 13.5859 169.013 13.5781 169.117 13.5625C169.607 13.5 170.37 13.2318 171.406 12.7578C172.49 12.2682 173.203 11.9922 173.547 11.9297C173.656 11.9089 173.755 11.8984 173.844 11.8984C174.292 11.8984 174.529 12.1406 174.555 12.625C174.393 13.6198 173.076 14.5885 170.602 15.5312C169.779 15.8438 169.049 16 168.414 16C167.419 16 166.648 15.6198 166.102 14.8594C165.711 14.3177 165.505 13.6354 165.484 12.8125V12.625C165.484 11.9115 165.62 11.2031 165.891 10.5C166.193 9.71875 166.604 9.09115 167.125 8.61719C167.677 8.1224 168.273 7.875 168.914 7.875H168.969C169.562 7.875 169.951 8.1224 170.133 8.61719C170.18 8.7474 170.203 8.86979 170.203 8.98438C170.203 9.33333 169.997 9.6276 169.586 9.86719C168.737 10.3776 168.219 10.7292 168.031 10.9219C167.703 11.2604 167.539 11.6484 167.539 12.0859C167.539 12.2995 167.581 12.5286 167.664 12.7734ZM181.219 14.9922V15.0547C181.182 15.6328 180.909 15.9219 180.398 15.9219C179.82 15.9219 179.25 15.6719 178.688 15.1719C178.172 14.5729 177.771 13.4896 177.484 11.9219C177.438 11.6719 177.411 11.5286 177.406 11.4922C177.281 11.7266 177.078 12.2083 176.797 12.9375C176.417 13.9271 176.117 14.6172 175.898 15.0078C175.523 15.6693 175.154 16 174.789 16C174.409 16 174.086 15.8542 173.82 15.5625C173.424 15.125 173.227 14.5781 173.227 13.9219C173.227 13.8177 173.232 13.7109 173.242 13.6016C173.305 12.9141 173.336 11.875 173.336 10.4844C173.341 9.99479 173.344 9.60677 173.344 9.32031C173.365 7.8099 173.445 6.40365 173.586 5.10156C173.852 2.69531 174.263 1.49219 174.82 1.49219C174.919 1.49219 175.016 1.52604 175.109 1.59375C175.484 1.76562 175.677 2.35156 175.688 3.35156V3.40625C175.688 4.09375 175.594 5.13802 175.406 6.53906C175.339 7.05469 175.302 7.38021 175.297 7.51562C175.234 8.5625 175.203 9.51823 175.203 10.3828C175.203 10.7682 175.208 11.1328 175.219 11.4766C175.516 11.1745 175.802 10.612 176.078 9.78906C176.271 9.19531 176.448 8.76823 176.609 8.50781C176.875 8.0651 177.24 7.7474 177.703 7.55469C177.807 7.50781 177.909 7.48438 178.008 7.48438C178.461 7.48438 178.828 7.92188 179.109 8.79688C179.312 9.43229 179.492 10.388 179.648 11.6641C179.674 11.8724 179.69 11.9974 179.695 12.0391C180.049 13.4297 180.542 14.401 181.172 14.9531L181.219 14.9922ZM194.852 9.98438C194.82 9.96354 194.784 9.95312 194.742 9.95312C194.57 9.95312 194.333 10.1172 194.031 10.4453C193.646 10.8724 193.26 11.4427 192.875 12.1562C192.521 12.8229 192.315 13.3255 192.258 13.6641C192.794 13.513 193.357 13.0078 193.945 12.1484C194.523 11.3099 194.826 10.5885 194.852 9.98438ZM198.742 13.7031C199.117 14.224 199.305 14.6536 199.305 14.9922C199.258 15.2474 199.096 15.474 198.82 15.6719C198.549 15.8698 198.263 15.9688 197.961 15.9688C197.711 15.9688 197.503 15.8906 197.336 15.7344C196.992 15.4219 196.677 14.8125 196.391 13.9062C196.172 13.1979 195.958 12.7109 195.75 12.4453C195.703 12.5182 195.633 12.6276 195.539 12.7734C194.977 13.6641 194.516 14.3073 194.156 14.7031C193.536 15.3802 192.888 15.7917 192.211 15.9375C192.013 15.9792 191.823 16 191.641 16C191.109 16 190.68 15.8307 190.352 15.4922C190.018 15.1536 189.836 14.6927 189.805 14.1094C189.805 12.9323 190.552 11.487 192.047 9.77344C193.964 8.21615 195.411 7.4375 196.391 7.4375H196.469C196.865 7.4375 197.174 7.8125 197.398 8.5625C197.529 8.98438 197.651 9.65104 197.766 10.5625C197.802 10.8802 197.828 11.0755 197.844 11.1484C197.859 11.2057 197.888 11.3411 197.93 11.5547C198.07 12.2682 198.211 12.7812 198.352 13.0938C198.414 13.2292 198.544 13.4323 198.742 13.7031ZM202.375 10.2812L202.438 10.3359C202.682 10.4036 203.922 10.8464 206.156 11.6641C206.974 11.9661 207.536 12.3073 207.844 12.6875C208.047 12.9375 208.148 13.2161 208.148 13.5234C208.148 13.7943 208.07 14.0859 207.914 14.3984C207.742 14.7318 207.31 15.0391 206.617 15.3203C205.971 15.5807 205.232 15.7708 204.398 15.8906C203.904 15.9635 203.451 16 203.039 16C202.747 16 202.474 15.9818 202.219 15.9453C201.536 15.8516 201.13 15.638 201 15.3047C200.87 14.987 200.805 14.6979 200.805 14.4375C200.805 14.2396 200.841 14.0573 200.914 13.8906C201.034 13.6094 201.221 13.4688 201.477 13.4688C201.612 13.4688 201.763 13.5052 201.93 13.5781C202.701 13.9062 203.37 14.0703 203.938 14.0703C204.542 14.0703 205.029 13.8828 205.398 13.5078C205.305 13.5078 204.25 13.1953 202.234 12.5703C200.729 12.1068 199.977 11.4922 199.977 10.7266C199.961 10.6172 199.953 10.5104 199.953 10.4062C199.953 9.64583 200.396 8.99219 201.281 8.44531C202.109 7.9349 202.938 7.67969 203.766 7.67969H203.906C204.203 7.67969 204.477 7.75521 204.727 7.90625C204.961 8.04688 205.122 8.22135 205.211 8.42969C205.247 8.52344 205.266 8.61198 205.266 8.69531C205.266 8.8151 205.232 8.92708 205.164 9.03125C205.029 9.23438 204.776 9.38021 204.406 9.46875C203.505 9.61458 203.052 9.6875 203.047 9.6875C202.557 9.80729 202.312 9.95052 202.312 10.1172C202.312 10.1901 202.333 10.2448 202.375 10.2812ZM228.805 9.6875V9.60938C228.805 8.71354 227.711 7.73698 225.523 6.67969L224.914 6.38281C223.206 5.52344 221.953 5.09375 221.156 5.09375C221.042 5.09375 220.93 5.10156 220.82 5.11719C220.826 5.91406 220.924 7.09896 221.117 8.67188C221.185 9.23958 221.232 9.64844 221.258 9.89844C221.263 9.98698 221.273 10.1562 221.289 10.4062C221.378 11.7708 221.552 12.5781 221.812 12.8281C223.792 12.4635 225.349 12.026 226.484 11.5156L226.703 11.4219C228.068 10.8333 228.768 10.2552 228.805 9.6875ZM231.32 8.19531C231.508 8.5599 231.602 8.9349 231.602 9.32031C231.602 9.76823 231.474 10.2292 231.219 10.7031C230.828 11.4323 230.216 12.0755 229.383 12.6328C228.107 13.487 226.344 14.1979 224.094 14.7656C223.896 14.8177 223.557 14.901 223.078 15.0156L222.758 15.0938C222.763 15.1042 222.766 15.112 222.766 15.1172H222.758C222.768 15.1849 222.773 15.2474 222.773 15.3047C222.773 15.4714 222.721 15.5911 222.617 15.6641C222.284 15.888 221.956 16 221.633 16C221.43 16 221.143 15.9375 220.773 15.8125C220.424 15.6979 220.148 15.6302 219.945 15.6094C219.872 15.6042 219.727 15.5964 219.508 15.5859C218.211 15.5547 217.406 15.3281 217.094 14.9062C216.964 14.724 216.898 14.513 216.898 14.2734C216.898 14.1276 216.922 13.9714 216.969 13.8047C217.115 13.2839 217.596 13.0234 218.414 13.0234C218.633 13.0234 218.938 13.0469 219.328 13.0938C219.344 13.0938 219.37 13.0964 219.406 13.1016C219.438 13.1068 219.461 13.1094 219.477 13.1094C219.221 10.9896 218.982 9.1276 218.758 7.52344C218.742 7.40885 218.734 7.13021 218.734 6.6875C218.734 5.30729 218.638 4.57031 218.445 4.47656C218.305 4.40885 217.927 4.32812 217.312 4.23438C216.396 4.09375 215.742 3.9401 215.352 3.77344C214.721 3.4974 214.406 3.09896 214.406 2.57812V2.49219C214.464 1.67969 214.935 1.27344 215.82 1.27344C216.206 1.27344 216.805 1.38021 217.617 1.59375C217.971 1.6875 218.211 1.74479 218.336 1.76562C218.357 1.32292 218.51 0.947917 218.797 0.640625C219.094 0.322917 219.453 0.164062 219.875 0.164062H219.938C220.24 0.164062 220.49 0.268229 220.688 0.476562C220.943 0.742188 221.07 1.10938 221.07 1.57812V1.66406C221.065 1.78385 221.047 1.91927 221.016 2.07031C221 2.13802 220.992 2.17708 220.992 2.1875C221.008 2.21354 221.091 2.27604 221.242 2.375C221.643 2.61458 222.18 2.84896 222.852 3.07812C223.94 3.44271 225.482 4.15625 227.477 5.21875L228.141 5.57031C229.823 6.46094 230.883 7.33594 231.32 8.19531ZM234.719 11.8984C235.052 11.8984 235.326 11.7812 235.539 11.5469C235.737 11.3333 235.852 11.0677 235.883 10.75C235.888 10.6979 235.891 10.6458 235.891 10.5938C235.891 10.3438 235.828 10.1224 235.703 9.92969C235.536 9.66927 235.292 9.51823 234.969 9.47656C234.927 9.47135 234.888 9.46875 234.852 9.46875C234.643 9.46875 234.482 9.55469 234.367 9.72656C234.247 9.90365 234.188 10.1484 234.188 10.4609C234.188 11.1589 234.365 11.638 234.719 11.8984ZM240.938 11.25C241.318 10.9688 241.604 10.8281 241.797 10.8281C241.99 10.8281 242.086 10.974 242.086 11.2656C241.961 12.1458 241.469 13.0703 240.609 14.0391C239.771 14.9766 238.919 15.5964 238.055 15.8984C237.742 15.9661 237.432 16 237.125 16C235.599 16 234.193 15.1354 232.906 13.4062C232.469 12.8177 232.25 12.0104 232.25 10.9844C232.25 10.5521 232.289 10.0781 232.367 9.5625C232.508 8.63542 233.247 8.02344 234.586 7.72656C234.768 7.6849 234.948 7.66406 235.125 7.66406C235.609 7.66406 236.062 7.82031 236.484 8.13281C236.964 8.48698 237.372 9.01562 237.711 9.71875C237.799 10.0365 237.844 10.3333 237.844 10.6094C237.844 11.4271 237.461 12.0859 236.695 12.5859C236.57 12.6693 236.404 12.7474 236.195 12.8203C235.961 12.9036 235.82 12.9557 235.773 12.9766C235.664 13.0339 235.609 13.1068 235.609 13.1953V13.2109C235.62 13.3203 235.711 13.4688 235.883 13.6562C236.247 14.0521 236.667 14.25 237.141 14.25C237.276 14.25 237.417 14.2344 237.562 14.2031C238.172 14.0677 238.781 13.6406 239.391 12.9219C240.208 11.9688 240.724 11.4115 240.938 11.25ZM243.891 10.2812L243.953 10.3359C244.198 10.4036 245.438 10.8464 247.672 11.6641C248.49 11.9661 249.052 12.3073 249.359 12.6875C249.562 12.9375 249.664 13.2161 249.664 13.5234C249.664 13.7943 249.586 14.0859 249.43 14.3984C249.258 14.7318 248.826 15.0391 248.133 15.3203C247.487 15.5807 246.747 15.7708 245.914 15.8906C245.419 15.9635 244.966 16 244.555 16C244.263 16 243.99 15.9818 243.734 15.9453C243.052 15.8516 242.646 15.638 242.516 15.3047C242.385 14.987 242.32 14.6979 242.32 14.4375C242.32 14.2396 242.357 14.0573 242.43 13.8906C242.549 13.6094 242.737 13.4688 242.992 13.4688C243.128 13.4688 243.279 13.5052 243.445 13.5781C244.216 13.9062 244.885 14.0703 245.453 14.0703C246.057 14.0703 246.544 13.8828 246.914 13.5078C246.82 13.5078 245.766 13.1953 243.75 12.5703C242.245 12.1068 241.492 11.4922 241.492 10.7266C241.477 10.6172 241.469 10.5104 241.469 10.4062C241.469 9.64583 241.911 8.99219 242.797 8.44531C243.625 7.9349 244.453 7.67969 245.281 7.67969H245.422C245.719 7.67969 245.992 7.75521 246.242 7.90625C246.477 8.04688 246.638 8.22135 246.727 8.42969C246.763 8.52344 246.781 8.61198 246.781 8.69531C246.781 8.8151 246.747 8.92708 246.68 9.03125C246.544 9.23438 246.292 9.38021 245.922 9.46875C245.021 9.61458 244.568 9.6875 244.562 9.6875C244.073 9.80729 243.828 9.95052 243.828 10.1172C243.828 10.1901 243.849 10.2448 243.891 10.2812ZM251.766 5.86719C251.417 5.84635 251.154 5.75 250.977 5.57812C250.831 5.44271 250.758 5.28125 250.758 5.09375V5.07031C250.768 4.78385 250.911 4.53385 251.188 4.32031C251.438 4.13281 251.724 4.03906 252.047 4.03906C252.109 4.03906 252.172 4.04167 252.234 4.04688C252.568 4.04688 252.831 4.11979 253.023 4.26562C253.206 4.40104 253.297 4.58073 253.297 4.80469C253.297 5.07552 253.174 5.31771 252.93 5.53125C252.669 5.76562 252.354 5.88281 251.984 5.88281C251.917 5.88281 251.844 5.8776 251.766 5.86719ZM252.289 7.625C252.648 7.625 252.828 7.77865 252.828 8.08594C253.062 9.38802 253.18 10.8359 253.18 12.4297C253.18 12.6172 253.177 12.8099 253.172 13.0078L253.125 15.3594C253.125 15.4792 252.966 15.6172 252.648 15.7734C252.341 15.9245 252.094 16 251.906 16C251.807 16 251.729 15.9766 251.672 15.9297C251.25 15.5807 251.003 15.0312 250.93 14.2812C250.914 14.1354 250.906 13.9635 250.906 13.7656C250.906 13.3385 250.938 12.7812 251 12.0938C251.026 11.8125 251.044 11.6042 251.055 11.4688C251.091 10.9583 251.109 10.4297 251.109 9.88281C251.109 9.70052 251.107 9.51562 251.102 9.32812C251.096 9.21354 251.083 9.07812 251.062 8.92188C251.057 8.875 251.055 8.82812 251.055 8.78125C251.055 8.53125 251.146 8.27604 251.328 8.01562C251.51 7.75521 251.831 7.625 252.289 7.625ZM257.164 10.6641C256.919 11.0286 256.747 11.4297 256.648 11.8672C256.607 12.0443 256.586 12.2057 256.586 12.3516C256.586 12.6536 256.68 12.8802 256.867 13.0312C256.883 13.0417 256.904 13.0469 256.93 13.0469C257.299 13.0469 258.146 12.0286 259.469 9.99219C259.651 9.71094 259.76 9.54167 259.797 9.48438C259.76 9.41146 259.654 9.375 259.477 9.375C259.143 9.375 258.747 9.49219 258.289 9.72656C257.779 9.98698 257.404 10.2995 257.164 10.6641ZM259.578 7.71875C260.026 7.71875 260.5 7.78906 261 7.92969C261.745 8.14323 262.117 8.45052 262.117 8.85156V8.92188L262.062 8.96094C261.87 9.09115 261.773 9.46094 261.773 10.0703C261.773 10.4036 261.802 10.8099 261.859 11.2891C261.901 11.6276 261.924 11.8568 261.93 11.9766L261.938 12.2969C261.974 13.2865 261.992 14.1771 261.992 14.9688C261.992 16.1771 261.951 17.1562 261.867 17.9062C261.779 18.7344 261.583 19.4583 261.281 20.0781C260.818 21.0417 260.154 21.6146 259.289 21.7969C259.102 21.8385 258.906 21.8594 258.703 21.8594C257.922 21.8594 257.201 21.5938 256.539 21.0625C256.216 20.8073 255.943 20.487 255.719 20.1016C255.609 19.9036 255.513 19.7448 255.43 19.625C254.987 18.9531 254.766 18.3958 254.766 17.9531C254.766 17.625 254.888 17.362 255.133 17.1641C255.201 17.1276 255.266 17.1094 255.328 17.1094C255.698 17.1094 256.086 17.4531 256.492 18.1406C256.747 18.5625 257.06 18.9245 257.43 19.2266C257.841 19.5599 258.221 19.7266 258.57 19.7266C259.055 19.7266 259.411 19.3906 259.641 18.7188C259.859 18.0625 259.969 17.1276 259.969 15.9141C259.969 15.487 259.956 15.026 259.93 14.5312C259.888 13.8177 259.867 13.2344 259.867 12.7812C259.867 12.6198 259.87 12.474 259.875 12.3438C259.714 12.5365 259.503 12.8516 259.242 13.2891C258.633 14.3047 258.018 14.9089 257.398 15.1016C257.232 15.1484 257.062 15.1719 256.891 15.1719C256.359 15.1719 255.883 14.9453 255.461 14.4922C255.07 14.0703 254.831 13.5833 254.742 13.0312C254.701 12.7656 254.68 12.5052 254.68 12.25C254.68 11.1927 255.044 10.237 255.773 9.38281C256.721 8.27344 257.924 7.71875 259.383 7.71875H259.578ZM271.32 13.8359C271.461 14.3672 271.531 14.7969 271.531 15.125C271.531 15.3906 271.484 15.5859 271.391 15.7109C271.24 15.9036 270.997 16 270.664 16C270.534 16 270.388 15.9844 270.227 15.9531C269.784 15.875 269.432 15.3411 269.172 14.3516C269.016 13.7682 268.844 12.7604 268.656 11.3281C268.526 10.349 268.424 9.72396 268.352 9.45312C267.57 10.026 267.021 10.6667 266.703 11.375C266.443 11.9583 266.307 12.6849 266.297 13.5547C266.292 13.9297 266.148 14.3568 265.867 14.8359C265.544 15.388 265.198 15.6641 264.828 15.6641C264.51 15.6641 264.227 15.4427 263.977 15C263.826 14.7292 263.75 14.2812 263.75 13.6562C263.75 13.0885 263.812 12.375 263.938 11.5156C264.047 10.7656 264.104 10.2526 264.109 9.97656C264.115 9.42969 264.258 9.02865 264.539 8.77344C264.737 8.58594 264.987 8.49219 265.289 8.49219C265.409 8.49219 265.539 8.50781 265.68 8.53906C266.018 8.61198 266.201 8.72917 266.227 8.89062C266.398 8.70833 266.622 8.40365 266.898 7.97656C267.154 7.58073 267.359 7.29167 267.516 7.10938C267.635 6.97396 267.828 6.82292 268.094 6.65625C268.453 6.4375 268.771 6.32812 269.047 6.32812C269.38 6.32812 269.622 6.48698 269.773 6.80469C270.206 7.79948 270.576 9.35677 270.883 11.4766C270.997 12.2318 271.089 12.7995 271.156 13.1797C271.177 13.3047 271.232 13.5234 271.32 13.8359ZM275.797 13.9375C275.948 14.1979 276.023 14.5156 276.023 14.8906C276.023 15.0417 276.01 15.2031 275.984 15.375C275.896 15.9688 275.677 16.5703 275.328 17.1797C274.948 17.8359 274.492 18.3516 273.961 18.7266C273.43 19.0964 272.883 19.2812 272.32 19.2812H272.219C272.094 19.2812 271.997 19.2292 271.93 19.125C271.898 19.0729 271.883 19 271.883 18.9062C271.883 18.4323 272.279 17.4193 273.07 15.8672C273.154 15.7057 273.208 15.599 273.234 15.5469C273.323 15.3542 273.378 15.0443 273.398 14.6172C273.424 14.1693 273.49 13.8646 273.594 13.7031C273.755 13.4583 274.049 13.3359 274.477 13.3359C274.544 13.3359 274.617 13.3385 274.695 13.3438C275.201 13.3438 275.568 13.5417 275.797 13.9375ZM62.7188 36.8359C62.8802 37.4297 62.9609 37.9688 62.9609 38.4531C62.9609 38.5781 62.9557 38.6979 62.9453 38.8125C62.888 39.3802 62.6901 39.6641 62.3516 39.6641C62.2526 39.6641 62.1406 39.6406 62.0156 39.5938C61.1979 39.2708 60.3854 37.5208 59.5781 34.3438C59.401 33.6562 59.1068 32.3932 58.6953 30.5547C58.3776 29.1224 58.138 28.1589 57.9766 27.6641C57.9557 29.5443 57.5651 32.0417 56.8047 35.1562C56.4193 36.7396 56.0234 37.9479 55.6172 38.7812C55.2214 39.5938 54.8411 40 54.4766 40C54.3984 40 54.3203 39.9818 54.2422 39.9453C53.4505 39.5807 52.776 37.7943 52.2188 34.5859C51.5365 30.6797 51.1484 28.6146 51.0547 28.3906C50.7474 29.2031 50.4297 30.974 50.1016 33.7031C49.7734 36.401 49.4635 38.112 49.1719 38.8359C49.0156 39.2161 48.8229 39.4062 48.5938 39.4062C48.4583 39.4062 48.3073 39.3359 48.1406 39.1953C47.75 38.8568 47.5 38.3984 47.3906 37.8203C47.3438 37.5859 47.3203 37.3073 47.3203 36.9844C47.3203 35.9479 47.5573 34.4609 48.0312 32.5234V32.5312L48.8125 29.0391C49.1198 27.6797 49.3438 26.8281 49.4844 26.4844C49.7604 25.8073 50.1562 25.3359 50.6719 25.0703C50.8802 24.9609 51.0833 24.9062 51.2812 24.9062C51.6406 24.9062 51.9818 25.0833 52.3047 25.4375C53.013 26.2188 53.5391 27.7812 53.8828 30.125C53.9661 30.6927 54.0781 31.6224 54.2188 32.9141C54.3385 33.9974 54.4401 34.7552 54.5234 35.1875C54.638 34.5156 54.9089 33.0312 55.3359 30.7344C55.7057 28.7604 55.9505 27.3724 56.0703 26.5703C56.237 25.4453 56.375 24.7708 56.4844 24.5469C56.7656 23.9479 57.3255 23.6484 58.1641 23.6484H58.25C58.849 24.2995 59.3802 25.3568 59.8438 26.8203C60.5312 29.0026 61.4896 32.3411 62.7188 36.8359ZM68.8203 33.9844C68.7891 33.9635 68.7526 33.9531 68.7109 33.9531C68.5391 33.9531 68.3021 34.1172 68 34.4453C67.6146 34.8724 67.2292 35.4427 66.8438 36.1562C66.4896 36.8229 66.2839 37.3255 66.2266 37.6641C66.763 37.513 67.3255 37.0078 67.9141 36.1484C68.4922 35.3099 68.7943 34.5885 68.8203 33.9844ZM72.7109 37.7031C73.0859 38.224 73.2734 38.6536 73.2734 38.9922C73.2266 39.2474 73.0651 39.474 72.7891 39.6719C72.5182 39.8698 72.2318 39.9688 71.9297 39.9688C71.6797 39.9688 71.4714 39.8906 71.3047 39.7344C70.9609 39.4219 70.6458 38.8125 70.3594 37.9062C70.1406 37.1979 69.9271 36.7109 69.7188 36.4453C69.6719 36.5182 69.6016 36.6276 69.5078 36.7734C68.9453 37.6641 68.4844 38.3073 68.125 38.7031C67.5052 39.3802 66.8568 39.7917 66.1797 39.9375C65.9818 39.9792 65.7917 40 65.6094 40C65.0781 40 64.6484 39.8307 64.3203 39.4922C63.987 39.1536 63.8047 38.6927 63.7734 38.1094C63.7734 36.9323 64.5208 35.487 66.0156 33.7734C67.9323 32.2161 69.3802 31.4375 70.3594 31.4375H70.4375C70.8333 31.4375 71.1432 31.8125 71.3672 32.5625C71.4974 32.9844 71.6198 33.651 71.7344 34.5625C71.7708 34.8802 71.7969 35.0755 71.8125 35.1484C71.8281 35.2057 71.8568 35.3411 71.8984 35.5547C72.0391 36.2682 72.1797 36.7812 72.3203 37.0938C72.3828 37.2292 72.513 37.4323 72.7109 37.7031ZM80.375 31.4297C80.6667 31.4297 80.9635 31.5417 81.2656 31.7656C81.5365 31.9688 81.6719 32.1849 81.6719 32.4141C81.6719 32.4714 81.6615 32.5312 81.6406 32.5938C80.5677 33.1406 79.6719 33.888 78.9531 34.8359C78.1615 35.8724 77.6146 37.0833 77.3125 38.4688C77.0938 39.4844 76.7786 39.9922 76.3672 39.9922C76.1901 39.9922 75.9948 39.8958 75.7812 39.7031C75.2552 39.224 74.8438 38.2995 74.5469 36.9297C74.3073 35.8359 74.1875 34.7708 74.1875 33.7344C74.2865 33.3125 74.4453 33.0234 74.6641 32.8672C74.7682 32.7995 74.875 32.7656 74.9844 32.7656C75.1042 32.7656 75.224 32.8021 75.3438 32.875C75.9167 33.2292 76.2448 34.0547 76.3281 35.3516C76.5417 34.5651 77.0339 33.7448 77.8047 32.8906C78.6849 31.9167 79.5365 31.4297 80.3594 31.4297H80.375ZM85.1953 34.8516C85.2161 34.8516 86.4271 35.3151 88.8281 36.2422C90.6875 36.9609 91.6745 37.6016 91.7891 38.1641C91.7786 38.1641 91.7083 38.3177 91.5781 38.625C91.4479 38.9375 91.2422 39.0938 90.9609 39.0938C90.8464 39.1302 90.7266 39.1484 90.6016 39.1484C90.3464 39.1484 90.0625 39.0781 89.75 38.9375C89.6094 38.8802 89.4089 38.7812 89.1484 38.6406C88.8828 38.4948 88.6901 38.3958 88.5703 38.3438H88.5781L87.6797 37.9062C87.1745 37.6562 86.7422 37.4583 86.3828 37.3125C85.7839 37.0729 85.3307 36.9531 85.0234 36.9531C84.7578 36.9531 84.6068 37.0469 84.5703 37.2344C84.5495 37.3385 84.5391 37.4922 84.5391 37.6953C84.5391 37.8359 84.5443 37.9974 84.5547 38.1797C84.5651 38.3984 84.5703 38.5885 84.5703 38.75C84.5703 38.9479 84.5625 39.1042 84.5469 39.2188C84.4844 39.7344 84.2344 39.9922 83.7969 39.9922C83.6042 39.9922 83.3724 39.9401 83.1016 39.8359C82.7161 39.6901 82.4948 39.4219 82.4375 39.0312C82.4271 38.9635 82.4219 38.888 82.4219 38.8047C82.4219 38.5599 82.4661 38.2396 82.5547 37.8438C82.6901 37.224 82.763 36.8177 82.7734 36.625V36.5547C82.7734 36.1745 82.6536 35.8984 82.4141 35.7266C82.0755 35.487 81.8854 35.2396 81.8438 34.9844C81.8385 34.9531 81.8359 34.9193 81.8359 34.8828C81.8359 34.6953 81.901 34.4792 82.0312 34.2344C82.5365 33.2656 82.7969 32.6354 82.8125 32.3438C82.8177 32.2188 82.8203 31.8854 82.8203 31.3438V29.6172C82.8203 28.7839 82.8333 28.0885 82.8594 27.5312C82.974 25.1875 83.3594 24.0156 84.0156 24.0156H84.0781C84.6823 24.0885 84.9844 25.1406 84.9844 27.1719C84.9844 28.4427 84.8646 30.1016 84.625 32.1484C84.8594 32.0703 85.2057 31.9427 85.6641 31.7656C86.1901 31.5573 86.5625 31.4141 86.7812 31.3359C87.6042 31.0443 88.2943 30.8984 88.8516 30.8984C88.9141 30.8984 88.974 30.901 89.0312 30.9062C89.5156 30.9062 89.8099 30.9922 89.9141 31.1641C89.9714 31.2578 90 31.5443 90 32.0234C89.8542 32.3411 89.1068 32.6979 87.7578 33.0938C86.7422 33.3229 86.0365 33.5182 85.6406 33.6797C85.0677 33.9089 84.7812 34.1406 84.7812 34.375C84.7812 34.5312 84.9193 34.6901 85.1953 34.8516ZM93.9375 35.8984C94.2708 35.8984 94.5443 35.7812 94.7578 35.5469C94.9557 35.3333 95.0703 35.0677 95.1016 34.75C95.1068 34.6979 95.1094 34.6458 95.1094 34.5938C95.1094 34.3438 95.0469 34.1224 94.9219 33.9297C94.7552 33.6693 94.5104 33.5182 94.1875 33.4766C94.1458 33.4714 94.1068 33.4688 94.0703 33.4688C93.862 33.4688 93.7005 33.5547 93.5859 33.7266C93.4661 33.9036 93.4062 34.1484 93.4062 34.4609C93.4062 35.1589 93.5833 35.638 93.9375 35.8984ZM100.156 35.25C100.536 34.9688 100.823 34.8281 101.016 34.8281C101.208 34.8281 101.305 34.974 101.305 35.2656C101.18 36.1458 100.688 37.0703 99.8281 38.0391C98.9896 38.9766 98.138 39.5964 97.2734 39.8984C96.9609 39.9661 96.651 40 96.3438 40C94.8177 40 93.4115 39.1354 92.125 37.4062C91.6875 36.8177 91.4688 36.0104 91.4688 34.9844C91.4688 34.5521 91.5078 34.0781 91.5859 33.5625C91.7266 32.6354 92.4661 32.0234 93.8047 31.7266C93.987 31.6849 94.1667 31.6641 94.3438 31.6641C94.8281 31.6641 95.2812 31.8203 95.7031 32.1328C96.1823 32.487 96.5911 33.0156 96.9297 33.7188C97.0182 34.0365 97.0625 34.3333 97.0625 34.6094C97.0625 35.4271 96.6797 36.0859 95.9141 36.5859C95.7891 36.6693 95.6224 36.7474 95.4141 36.8203C95.1797 36.9036 95.0391 36.9557 94.9922 36.9766C94.8828 37.0339 94.8281 37.1068 94.8281 37.1953V37.2109C94.8385 37.3203 94.9297 37.4688 95.1016 37.6562C95.4661 38.0521 95.8854 38.25 96.3594 38.25C96.4948 38.25 96.6354 38.2344 96.7812 38.2031C97.3906 38.0677 98 37.6406 98.6094 36.9219C99.4271 35.9688 99.9427 35.4115 100.156 35.25ZM109.422 32C109.51 32.1667 109.555 32.3255 109.555 32.4766C109.555 32.5964 109.529 32.7083 109.477 32.8125C109.268 33.2396 108.734 33.5312 107.875 33.6875C107.344 33.7812 106.534 33.8698 105.445 33.9531L105.133 33.9766C105.128 34.013 105.12 34.1172 105.109 34.2891C105.073 34.7266 105.055 35.0677 105.055 35.3125C105.055 35.4167 105.057 35.5026 105.062 35.5703C105.12 36.138 105.156 36.8516 105.172 37.7109V38.0625C105.172 39.2552 105.07 39.8854 104.867 39.9531C104.857 39.9844 104.721 40 104.461 40C103.831 40 103.49 39.974 103.438 39.9219C103 39.4948 102.781 38.5547 102.781 37.1016C102.781 36.6589 102.802 36.1719 102.844 35.6406C102.849 35.5417 102.852 35.4453 102.852 35.3516C102.852 34.8984 102.766 34.5781 102.594 34.3906C102.443 34.224 102.109 34.1406 101.594 34.1406H101.453C101.37 34.1458 101.292 34.1484 101.219 34.1484C100.87 34.1484 100.604 34.1172 100.422 34.0547C100.062 33.9297 99.8047 33.6667 99.6484 33.2656V33.2188C99.6484 33.026 99.7135 32.8646 99.8438 32.7344C100.135 32.4323 100.677 32.2812 101.469 32.2812C101.646 32.2812 101.797 32.2891 101.922 32.3047C102.021 32.3151 102.112 32.3203 102.195 32.3203C102.393 32.3203 102.583 32.2839 102.766 32.2109C102.703 31.5234 102.672 30.8464 102.672 30.1797C102.672 29.6641 102.69 29.1562 102.727 28.6562C102.846 27.1354 103.135 26.1224 103.594 25.6172C103.818 25.3672 104.083 25.2422 104.391 25.2422H104.469C104.594 25.2422 104.703 25.2917 104.797 25.3906C105.005 25.6146 105.109 26.2135 105.109 27.1875C105.109 27.7604 105.073 28.4609 105 29.2891C104.953 29.8307 104.927 30.1849 104.922 30.3516C104.917 30.5391 104.914 30.7839 104.914 31.0859V32.0156C104.914 32.099 105.073 32.1406 105.391 32.1406C105.458 32.1406 105.534 32.138 105.617 32.1328C106.102 32.1068 106.703 32.0234 107.422 31.8828C107.458 31.8724 107.539 31.8516 107.664 31.8203C108.107 31.7057 108.445 31.6484 108.68 31.6484C109.055 31.6484 109.302 31.7656 109.422 32ZM110.016 29.8672C109.667 29.8464 109.404 29.75 109.227 29.5781C109.081 29.4427 109.008 29.2812 109.008 29.0938V29.0703C109.018 28.7839 109.161 28.5339 109.438 28.3203C109.688 28.1328 109.974 28.0391 110.297 28.0391C110.359 28.0391 110.422 28.0417 110.484 28.0469C110.818 28.0469 111.081 28.1198 111.273 28.2656C111.456 28.401 111.547 28.5807 111.547 28.8047C111.547 29.0755 111.424 29.3177 111.18 29.5312C110.919 29.7656 110.604 29.8828 110.234 29.8828C110.167 29.8828 110.094 29.8776 110.016 29.8672ZM110.539 31.625C110.898 31.625 111.078 31.7786 111.078 32.0859C111.312 33.388 111.43 34.8359 111.43 36.4297C111.43 36.6172 111.427 36.8099 111.422 37.0078L111.375 39.3594C111.375 39.4792 111.216 39.6172 110.898 39.7734C110.591 39.9245 110.344 40 110.156 40C110.057 40 109.979 39.9766 109.922 39.9297C109.5 39.5807 109.253 39.0312 109.18 38.2812C109.164 38.1354 109.156 37.9635 109.156 37.7656C109.156 37.3385 109.188 36.7812 109.25 36.0938C109.276 35.8125 109.294 35.6042 109.305 35.4688C109.341 34.9583 109.359 34.4297 109.359 33.8828C109.359 33.7005 109.357 33.5156 109.352 33.3281C109.346 33.2135 109.333 33.0781 109.312 32.9219C109.307 32.875 109.305 32.8281 109.305 32.7812C109.305 32.5312 109.396 32.276 109.578 32.0156C109.76 31.7552 110.081 31.625 110.539 31.625ZM120.68 37.8359C120.82 38.3672 120.891 38.7969 120.891 39.125C120.891 39.3906 120.844 39.5859 120.75 39.7109C120.599 39.9036 120.357 40 120.023 40C119.893 40 119.747 39.9844 119.586 39.9531C119.143 39.875 118.792 39.3411 118.531 38.3516C118.375 37.7682 118.203 36.7604 118.016 35.3281C117.885 34.349 117.784 33.724 117.711 33.4531C116.93 34.026 116.38 34.6667 116.062 35.375C115.802 35.9583 115.667 36.6849 115.656 37.5547C115.651 37.9297 115.508 38.3568 115.227 38.8359C114.904 39.388 114.557 39.6641 114.188 39.6641C113.87 39.6641 113.586 39.4427 113.336 39C113.185 38.7292 113.109 38.2812 113.109 37.6562C113.109 37.0885 113.172 36.375 113.297 35.5156C113.406 34.7656 113.464 34.2526 113.469 33.9766C113.474 33.4297 113.617 33.0286 113.898 32.7734C114.096 32.5859 114.346 32.4922 114.648 32.4922C114.768 32.4922 114.898 32.5078 115.039 32.5391C115.378 32.612 115.56 32.7292 115.586 32.8906C115.758 32.7083 115.982 32.4036 116.258 31.9766C116.513 31.5807 116.719 31.2917 116.875 31.1094C116.995 30.974 117.188 30.8229 117.453 30.6562C117.812 30.4375 118.13 30.3281 118.406 30.3281C118.74 30.3281 118.982 30.487 119.133 30.8047C119.565 31.7995 119.935 33.3568 120.242 35.4766C120.357 36.2318 120.448 36.7995 120.516 37.1797C120.536 37.3047 120.591 37.5234 120.68 37.8359ZM124.477 34.6641C124.232 35.0286 124.06 35.4297 123.961 35.8672C123.919 36.0443 123.898 36.2057 123.898 36.3516C123.898 36.6536 123.992 36.8802 124.18 37.0312C124.195 37.0417 124.216 37.0469 124.242 37.0469C124.612 37.0469 125.458 36.0286 126.781 33.9922C126.964 33.7109 127.073 33.5417 127.109 33.4844C127.073 33.4115 126.966 33.375 126.789 33.375C126.456 33.375 126.06 33.4922 125.602 33.7266C125.091 33.987 124.716 34.2995 124.477 34.6641ZM126.891 31.7188C127.339 31.7188 127.812 31.7891 128.312 31.9297C129.057 32.1432 129.43 32.4505 129.43 32.8516V32.9219L129.375 32.9609C129.182 33.0911 129.086 33.4609 129.086 34.0703C129.086 34.4036 129.115 34.8099 129.172 35.2891C129.214 35.6276 129.237 35.8568 129.242 35.9766L129.25 36.2969C129.286 37.2865 129.305 38.1771 129.305 38.9688C129.305 40.1771 129.263 41.1562 129.18 41.9062C129.091 42.7344 128.896 43.4583 128.594 44.0781C128.13 45.0417 127.466 45.6146 126.602 45.7969C126.414 45.8385 126.219 45.8594 126.016 45.8594C125.234 45.8594 124.513 45.5938 123.852 45.0625C123.529 44.8073 123.255 44.487 123.031 44.1016C122.922 43.9036 122.826 43.7448 122.742 43.625C122.299 42.9531 122.078 42.3958 122.078 41.9531C122.078 41.625 122.201 41.362 122.445 41.1641C122.513 41.1276 122.578 41.1094 122.641 41.1094C123.01 41.1094 123.398 41.4531 123.805 42.1406C124.06 42.5625 124.372 42.9245 124.742 43.2266C125.154 43.5599 125.534 43.7266 125.883 43.7266C126.367 43.7266 126.724 43.3906 126.953 42.7188C127.172 42.0625 127.281 41.1276 127.281 39.9141C127.281 39.487 127.268 39.026 127.242 38.5312C127.201 37.8177 127.18 37.2344 127.18 36.7812C127.18 36.6198 127.182 36.474 127.188 36.3438C127.026 36.5365 126.815 36.8516 126.555 37.2891C125.945 38.3047 125.331 38.9089 124.711 39.1016C124.544 39.1484 124.375 39.1719 124.203 39.1719C123.672 39.1719 123.195 38.9453 122.773 38.4922C122.383 38.0703 122.143 37.5833 122.055 37.0312C122.013 36.7656 121.992 36.5052 121.992 36.25C121.992 35.1927 122.357 34.237 123.086 33.3828C124.034 32.2734 125.237 31.7188 126.695 31.7188H126.891ZM134.047 37.9375C134.198 38.1979 134.273 38.5156 134.273 38.8906C134.273 39.0417 134.26 39.2031 134.234 39.375C134.146 39.9688 133.927 40.5703 133.578 41.1797C133.198 41.8359 132.742 42.3516 132.211 42.7266C131.68 43.0964 131.133 43.2812 130.57 43.2812H130.469C130.344 43.2812 130.247 43.2292 130.18 43.125C130.148 43.0729 130.133 43 130.133 42.9062C130.133 42.4323 130.529 41.4193 131.32 39.8672C131.404 39.7057 131.458 39.599 131.484 39.5469C131.573 39.3542 131.628 39.0443 131.648 38.6172C131.674 38.1693 131.74 37.8646 131.844 37.7031C132.005 37.4583 132.299 37.3359 132.727 37.3359C132.794 37.3359 132.867 37.3385 132.945 37.3438C133.451 37.3438 133.818 37.5417 134.047 37.9375ZM155.562 33.1875V33.2266C155.562 33.4714 155.388 33.6797 155.039 33.8516C154.56 34.0859 154.044 34.2604 153.492 34.375H153.484V34.5781C153.484 35.1979 153.57 35.8854 153.742 36.6406C153.924 37.4375 154.026 38.1484 154.047 38.7734V38.8203C154.047 39.1484 153.94 39.4193 153.727 39.6328C153.492 39.8776 153.174 40 152.773 40C152.674 40 152.57 39.9922 152.461 39.9766C152.112 39.9141 151.872 39.7396 151.742 39.4531C151.669 39.2865 151.62 39.013 151.594 38.6328C151.562 38.1641 151.521 37.8802 151.469 37.7812C151.401 37.6354 151.339 37.3333 151.281 36.875C151.271 36.7969 151.258 36.5911 151.242 36.2578C151.185 35.0026 151.102 34.2995 150.992 34.1484C150.919 34.0495 150.633 34 150.133 34C149.716 34 149.044 34.0521 148.117 34.1562C147.846 34.1875 147.664 34.2057 147.57 34.2109C147.581 34.3151 147.602 34.5417 147.633 34.8906C147.742 35.9948 147.797 36.9089 147.797 37.6328C147.797 38.5547 147.708 39.1693 147.531 39.4766C147.359 39.7682 147.062 39.9141 146.641 39.9141C146.38 39.9141 146.13 39.8516 145.891 39.7266C145.63 39.5911 145.461 39.4141 145.383 39.1953C145.31 39.0026 145.273 38.6719 145.273 38.2031C145.273 37.8802 145.292 37.4922 145.328 37.0391C145.359 36.6224 145.375 36.25 145.375 35.9219C145.375 35.0365 145.266 34.4766 145.047 34.2422C144.917 34.1068 144.74 34.0391 144.516 34.0391C144.375 34.0391 144.214 34.0651 144.031 34.1172C143.953 34.1432 143.88 34.1562 143.812 34.1562C143.667 34.1562 143.534 34.1068 143.414 34.0078C143.232 33.8672 143.125 33.6667 143.094 33.4062C143.089 33.3594 143.086 33.3151 143.086 33.2734C143.086 33.1068 143.125 32.9557 143.203 32.8203C143.318 32.6224 143.492 32.4948 143.727 32.4375C143.883 32.401 144.083 32.3828 144.328 32.3828L144.617 32.3906C144.763 32.3906 144.883 32.3828 144.977 32.3672C145.06 32.362 145.102 32.2005 145.102 31.8828C145.102 31.6901 145.086 31.4375 145.055 31.125C145.039 30.9792 145.031 30.8828 145.031 30.8359V30.6562C145.01 29.5208 144.956 28.4323 144.867 27.3906C144.857 27.3177 144.844 27.1979 144.828 27.0312C144.76 26.4219 144.727 25.9245 144.727 25.5391C144.727 25.4089 144.729 25.2917 144.734 25.1875C144.792 24.4427 145.018 23.9583 145.414 23.7344C145.716 23.5625 145.984 23.4766 146.219 23.4766C146.469 23.4766 146.682 23.5729 146.859 23.7656C147.208 24.1458 147.383 24.9974 147.383 26.3203C147.383 26.8307 147.357 27.4141 147.305 28.0703C147.279 28.4245 147.266 28.6432 147.266 28.7266V28.9297C147.266 29.263 147.255 29.5885 147.234 29.9062C147.219 30.1667 147.211 30.4401 147.211 30.7266C147.211 30.8724 147.214 31.0208 147.219 31.1719C147.234 31.5885 147.339 31.8802 147.531 32.0469C147.693 32.1823 147.953 32.25 148.312 32.25C148.474 32.25 148.74 32.2318 149.109 32.1953C149.464 32.1589 149.729 32.138 149.906 32.1328C150.365 32.1172 150.669 32.026 150.82 31.8594C150.945 31.7292 151.008 31.4115 151.008 30.9062C151.008 30.8333 151.005 30.7552 151 30.6719C150.995 30.5156 150.99 30.3906 150.984 30.2969C150.979 30.0312 150.977 29.7292 150.977 29.3906C150.966 28.7656 150.93 28.1042 150.867 27.4062C150.862 27.349 150.844 27.2135 150.812 27C150.734 26.375 150.695 25.8307 150.695 25.3672C150.695 24.4818 150.836 23.8802 151.117 23.5625C151.326 23.3229 151.599 23.2031 151.938 23.2031C152.333 23.2031 152.659 23.3464 152.914 23.6328C153.372 24.138 153.602 25.1797 153.602 26.7578C153.602 27.5234 153.547 28.4167 153.438 29.4375C153.406 29.7396 153.388 29.9453 153.383 30.0547L153.352 30.4141C153.32 30.8203 153.305 31.1276 153.305 31.3359C153.346 31.6953 153.422 31.9297 153.531 32.0391C153.609 32.1172 153.784 32.1823 154.055 32.2344C154.279 32.2812 154.456 32.3229 154.586 32.3594C155.206 32.5469 155.531 32.8229 155.562 33.1875ZM159.82 32.2578C163.768 31.2839 165.742 30.3411 165.742 29.4297C165.742 29.3359 165.729 29.2448 165.703 29.1562C165.531 28.5573 164.198 27.9531 161.703 27.3438C161.021 27.1823 160.552 27.1016 160.297 27.1016C160.24 27.1016 160.193 27.1068 160.156 27.1172C159.865 27.2214 159.719 27.6875 159.719 28.5156C159.719 29.9583 159.753 31.2057 159.82 32.2578ZM161.875 34.0391C162.385 34.3359 164.109 35.2266 167.047 36.7109C168.979 37.6484 169.945 38.2604 169.945 38.5469V38.5781C169.841 38.9375 169.578 39.2396 169.156 39.4844C168.865 39.6562 168.607 39.7422 168.383 39.7422C168.294 39.7422 168.211 39.7292 168.133 39.7031C166.091 38.9948 164.336 38.1901 162.867 37.2891C161.138 36.2266 160.143 35.6406 159.883 35.5312C159.904 36.9167 159.914 37.7396 159.914 38V38.0938C159.872 39.2031 159.685 39.8021 159.352 39.8906C159.076 39.9635 158.833 40 158.625 40C158.073 40 157.727 39.8359 157.586 39.5078C157.523 39.3568 157.492 38.9479 157.492 38.2812V38.125C157.492 38.0208 157.508 37.7656 157.539 37.3594C157.57 36.9375 157.589 36.6094 157.594 36.375V36.1641C157.594 35.4922 157.523 35.1432 157.383 35.1172L157.156 35.125C156.974 35.1458 156.859 35.1562 156.812 35.1562H156.758C156.508 35.1562 156.326 35.0833 156.211 34.9375C156.122 34.8177 156.078 34.6771 156.078 34.5156C156.078 34.375 156.109 34.2214 156.172 34.0547C156.286 33.737 156.445 33.487 156.648 33.3047C156.664 33.3047 156.872 33.1875 157.273 32.9531C157.404 32.8177 157.474 32.6094 157.484 32.3281C157.51 31.599 157.526 30.4922 157.531 29.0078C157.531 27.8724 157.539 27.3047 157.555 27.3047C157.477 26.8724 157.182 26.6536 156.672 26.6484C156.146 26.638 155.753 26.5026 155.492 26.2422C155.383 26.1276 155.328 26.0078 155.328 25.8828C155.328 25.6589 155.51 25.4167 155.875 25.1562C156.234 24.8958 156.818 24.7266 157.625 24.6484C157.828 24.6276 158.089 24.4714 158.406 24.1797C158.688 23.9193 158.945 23.7891 159.18 23.7891H159.219C159.443 23.7891 159.609 23.888 159.719 24.0859C159.927 24.4661 160.034 24.6589 160.039 24.6641L162.516 25.3281C162.755 25.401 163.177 25.513 163.781 25.6641C164.391 25.8151 164.859 25.9401 165.188 26.0391C166.318 26.3828 167.135 26.8047 167.641 27.3047C168.01 27.6693 168.195 28.138 168.195 28.7109C168.195 28.9297 168.169 29.1615 168.117 29.4062C167.951 30.1771 167.625 30.8177 167.141 31.3281C166.589 31.9167 165.74 32.4922 164.594 33.0547C163.646 33.5234 162.74 33.8516 161.875 34.0391ZM186.641 32C186.729 32.1667 186.773 32.3255 186.773 32.4766C186.773 32.5964 186.747 32.7083 186.695 32.8125C186.487 33.2396 185.953 33.5312 185.094 33.6875C184.562 33.7812 183.753 33.8698 182.664 33.9531L182.352 33.9766C182.346 34.013 182.339 34.1172 182.328 34.2891C182.292 34.7266 182.273 35.0677 182.273 35.3125C182.273 35.4167 182.276 35.5026 182.281 35.5703C182.339 36.138 182.375 36.8516 182.391 37.7109V38.0625C182.391 39.2552 182.289 39.8854 182.086 39.9531C182.076 39.9844 181.94 40 181.68 40C181.049 40 180.708 39.974 180.656 39.9219C180.219 39.4948 180 38.5547 180 37.1016C180 36.6589 180.021 36.1719 180.062 35.6406C180.068 35.5417 180.07 35.4453 180.07 35.3516C180.07 34.8984 179.984 34.5781 179.812 34.3906C179.661 34.224 179.328 34.1406 178.812 34.1406H178.672C178.589 34.1458 178.51 34.1484 178.438 34.1484C178.089 34.1484 177.823 34.1172 177.641 34.0547C177.281 33.9297 177.023 33.6667 176.867 33.2656V33.2188C176.867 33.026 176.932 32.8646 177.062 32.7344C177.354 32.4323 177.896 32.2812 178.688 32.2812C178.865 32.2812 179.016 32.2891 179.141 32.3047C179.24 32.3151 179.331 32.3203 179.414 32.3203C179.612 32.3203 179.802 32.2839 179.984 32.2109C179.922 31.5234 179.891 30.8464 179.891 30.1797C179.891 29.6641 179.909 29.1562 179.945 28.6562C180.065 27.1354 180.354 26.1224 180.812 25.6172C181.036 25.3672 181.302 25.2422 181.609 25.2422H181.688C181.812 25.2422 181.922 25.2917 182.016 25.3906C182.224 25.6146 182.328 26.2135 182.328 27.1875C182.328 27.7604 182.292 28.4609 182.219 29.2891C182.172 29.8307 182.146 30.1849 182.141 30.3516C182.135 30.5391 182.133 30.7839 182.133 31.0859V32.0156C182.133 32.099 182.292 32.1406 182.609 32.1406C182.677 32.1406 182.753 32.138 182.836 32.1328C183.32 32.1068 183.922 32.0234 184.641 31.8828C184.677 31.8724 184.758 31.8516 184.883 31.8203C185.326 31.7057 185.664 31.6484 185.898 31.6484C186.273 31.6484 186.521 31.7656 186.641 32ZM188.539 34.8281C188.367 35.1562 188.281 35.5312 188.281 35.9531V36.0625C188.292 36.5365 188.396 36.9375 188.594 37.2656C188.776 37.5729 188.995 37.7266 189.25 37.7266C189.536 37.7266 189.841 37.5339 190.164 37.1484C190.497 36.7526 190.685 36.2448 190.727 35.625C190.732 35.5417 190.734 35.4609 190.734 35.3828C190.734 34.862 190.615 34.4115 190.375 34.0312C190.234 33.8125 190.049 33.7031 189.82 33.7031C189.549 33.7031 189.273 33.8333 188.992 34.0938C188.721 34.3385 188.57 34.5833 188.539 34.8281ZM190.031 31.6797C190.859 31.6797 191.521 31.9922 192.016 32.6172C192.51 33.2422 192.758 34.0781 192.758 35.125C192.758 36.3594 192.44 37.4531 191.805 38.4062C191.086 39.4688 190.169 40 189.055 40C188.836 40 188.612 39.9766 188.383 39.9297C187.503 39.7578 186.865 39.2031 186.469 38.2656C186.203 37.6302 186.07 36.8984 186.07 36.0703C186.07 35.862 186.078 35.6484 186.094 35.4297C186.177 34.2891 186.565 33.3802 187.258 32.7031C187.945 32.0208 188.823 31.6797 189.891 31.6797H190.031ZM204.508 34.8281C204.336 35.1562 204.25 35.5312 204.25 35.9531V36.0625C204.26 36.5365 204.365 36.9375 204.562 37.2656C204.745 37.5729 204.964 37.7266 205.219 37.7266C205.505 37.7266 205.81 37.5339 206.133 37.1484C206.466 36.7526 206.654 36.2448 206.695 35.625C206.701 35.5417 206.703 35.4609 206.703 35.3828C206.703 34.862 206.583 34.4115 206.344 34.0312C206.203 33.8125 206.018 33.7031 205.789 33.7031C205.518 33.7031 205.242 33.8333 204.961 34.0938C204.69 34.3385 204.539 34.5833 204.508 34.8281ZM206 31.6797C206.828 31.6797 207.49 31.9922 207.984 32.6172C208.479 33.2422 208.727 34.0781 208.727 35.125C208.727 36.3594 208.409 37.4531 207.773 38.4062C207.055 39.4688 206.138 40 205.023 40C204.805 40 204.581 39.9766 204.352 39.9297C203.471 39.7578 202.833 39.2031 202.438 38.2656C202.172 37.6302 202.039 36.8984 202.039 36.0703C202.039 35.862 202.047 35.6484 202.062 35.4297C202.146 34.2891 202.534 33.3802 203.227 32.7031C203.914 32.0208 204.792 31.6797 205.859 31.6797H206ZM216.141 31.4297C216.432 31.4297 216.729 31.5417 217.031 31.7656C217.302 31.9688 217.438 32.1849 217.438 32.4141C217.438 32.4714 217.427 32.5312 217.406 32.5938C216.333 33.1406 215.438 33.888 214.719 34.8359C213.927 35.8724 213.38 37.0833 213.078 38.4688C212.859 39.4844 212.544 39.9922 212.133 39.9922C211.956 39.9922 211.76 39.8958 211.547 39.7031C211.021 39.224 210.609 38.2995 210.312 36.9297C210.073 35.8359 209.953 34.7708 209.953 33.7344C210.052 33.3125 210.211 33.0234 210.43 32.8672C210.534 32.7995 210.641 32.7656 210.75 32.7656C210.87 32.7656 210.99 32.8021 211.109 32.875C211.682 33.2292 212.01 34.0547 212.094 35.3516C212.307 34.5651 212.799 33.7448 213.57 32.8906C214.451 31.9167 215.302 31.4297 216.125 31.4297H216.141ZM220.273 34.6641C220.029 35.0286 219.857 35.4297 219.758 35.8672C219.716 36.0443 219.695 36.2057 219.695 36.3516C219.695 36.6536 219.789 36.8802 219.977 37.0312C219.992 37.0417 220.013 37.0469 220.039 37.0469C220.409 37.0469 221.255 36.0286 222.578 33.9922C222.76 33.7109 222.87 33.5417 222.906 33.4844C222.87 33.4115 222.763 33.375 222.586 33.375C222.253 33.375 221.857 33.4922 221.398 33.7266C220.888 33.987 220.513 34.2995 220.273 34.6641ZM222.688 31.7188C223.135 31.7188 223.609 31.7891 224.109 31.9297C224.854 32.1432 225.227 32.4505 225.227 32.8516V32.9219L225.172 32.9609C224.979 33.0911 224.883 33.4609 224.883 34.0703C224.883 34.4036 224.911 34.8099 224.969 35.2891C225.01 35.6276 225.034 35.8568 225.039 35.9766L225.047 36.2969C225.083 37.2865 225.102 38.1771 225.102 38.9688C225.102 40.1771 225.06 41.1562 224.977 41.9062C224.888 42.7344 224.693 43.4583 224.391 44.0781C223.927 45.0417 223.263 45.6146 222.398 45.7969C222.211 45.8385 222.016 45.8594 221.812 45.8594C221.031 45.8594 220.31 45.5938 219.648 45.0625C219.326 44.8073 219.052 44.487 218.828 44.1016C218.719 43.9036 218.622 43.7448 218.539 43.625C218.096 42.9531 217.875 42.3958 217.875 41.9531C217.875 41.625 217.997 41.362 218.242 41.1641C218.31 41.1276 218.375 41.1094 218.438 41.1094C218.807 41.1094 219.195 41.4531 219.602 42.1406C219.857 42.5625 220.169 42.9245 220.539 43.2266C220.951 43.5599 221.331 43.7266 221.68 43.7266C222.164 43.7266 222.521 43.3906 222.75 42.7188C222.969 42.0625 223.078 41.1276 223.078 39.9141C223.078 39.487 223.065 39.026 223.039 38.5312C222.997 37.8177 222.977 37.2344 222.977 36.7812C222.977 36.6198 222.979 36.474 222.984 36.3438C222.823 36.5365 222.612 36.8516 222.352 37.2891C221.742 38.3047 221.128 38.9089 220.508 39.1016C220.341 39.1484 220.172 39.1719 220 39.1719C219.469 39.1719 218.992 38.9453 218.57 38.4922C218.18 38.0703 217.94 37.5833 217.852 37.0312C217.81 36.7656 217.789 36.5052 217.789 36.25C217.789 35.1927 218.154 34.237 218.883 33.3828C219.831 32.2734 221.034 31.7188 222.492 31.7188H222.688ZM231.586 33.9844C231.555 33.9635 231.518 33.9531 231.477 33.9531C231.305 33.9531 231.068 34.1172 230.766 34.4453C230.38 34.8724 229.995 35.4427 229.609 36.1562C229.255 36.8229 229.049 37.3255 228.992 37.6641C229.529 37.513 230.091 37.0078 230.68 36.1484C231.258 35.3099 231.56 34.5885 231.586 33.9844ZM235.477 37.7031C235.852 38.224 236.039 38.6536 236.039 38.9922C235.992 39.2474 235.831 39.474 235.555 39.6719C235.284 39.8698 234.997 39.9688 234.695 39.9688C234.445 39.9688 234.237 39.8906 234.07 39.7344C233.727 39.4219 233.411 38.8125 233.125 37.9062C232.906 37.1979 232.693 36.7109 232.484 36.4453C232.438 36.5182 232.367 36.6276 232.273 36.7734C231.711 37.6641 231.25 38.3073 230.891 38.7031C230.271 39.3802 229.622 39.7917 228.945 39.9375C228.747 39.9792 228.557 40 228.375 40C227.844 40 227.414 39.8307 227.086 39.4922C226.753 39.1536 226.57 38.6927 226.539 38.1094C226.539 36.9323 227.286 35.487 228.781 33.7734C230.698 32.2161 232.146 31.4375 233.125 31.4375H233.203C233.599 31.4375 233.909 31.8125 234.133 32.5625C234.263 32.9844 234.385 33.651 234.5 34.5625C234.536 34.8802 234.562 35.0755 234.578 35.1484C234.594 35.2057 234.622 35.3411 234.664 35.5547C234.805 36.2682 234.945 36.7812 235.086 37.0938C235.148 37.2292 235.279 37.4323 235.477 37.7031ZM244.633 37.8359C244.773 38.3672 244.844 38.7969 244.844 39.125C244.844 39.3906 244.797 39.5859 244.703 39.7109C244.552 39.9036 244.31 40 243.977 40C243.846 40 243.701 39.9844 243.539 39.9531C243.096 39.875 242.745 39.3411 242.484 38.3516C242.328 37.7682 242.156 36.7604 241.969 35.3281C241.839 34.349 241.737 33.724 241.664 33.4531C240.883 34.026 240.333 34.6667 240.016 35.375C239.755 35.9583 239.62 36.6849 239.609 37.5547C239.604 37.9297 239.461 38.3568 239.18 38.8359C238.857 39.388 238.51 39.6641 238.141 39.6641C237.823 39.6641 237.539 39.4427 237.289 39C237.138 38.7292 237.062 38.2812 237.062 37.6562C237.062 37.0885 237.125 36.375 237.25 35.5156C237.359 34.7656 237.417 34.2526 237.422 33.9766C237.427 33.4297 237.57 33.0286 237.852 32.7734C238.049 32.5859 238.299 32.4922 238.602 32.4922C238.721 32.4922 238.852 32.5078 238.992 32.5391C239.331 32.612 239.513 32.7292 239.539 32.8906C239.711 32.7083 239.935 32.4036 240.211 31.9766C240.466 31.5807 240.672 31.2917 240.828 31.1094C240.948 30.974 241.141 30.8229 241.406 30.6562C241.766 30.4375 242.083 30.3281 242.359 30.3281C242.693 30.3281 242.935 30.487 243.086 30.8047C243.518 31.7995 243.888 33.3568 244.195 35.4766C244.31 36.2318 244.401 36.7995 244.469 37.1797C244.49 37.3047 244.544 37.5234 244.633 37.8359ZM247.172 29.8672C246.823 29.8464 246.56 29.75 246.383 29.5781C246.237 29.4427 246.164 29.2812 246.164 29.0938V29.0703C246.174 28.7839 246.318 28.5339 246.594 28.3203C246.844 28.1328 247.13 28.0391 247.453 28.0391C247.516 28.0391 247.578 28.0417 247.641 28.0469C247.974 28.0469 248.237 28.1198 248.43 28.2656C248.612 28.401 248.703 28.5807 248.703 28.8047C248.703 29.0755 248.581 29.3177 248.336 29.5312C248.076 29.7656 247.76 29.8828 247.391 29.8828C247.323 29.8828 247.25 29.8776 247.172 29.8672ZM247.695 31.625C248.055 31.625 248.234 31.7786 248.234 32.0859C248.469 33.388 248.586 34.8359 248.586 36.4297C248.586 36.6172 248.583 36.8099 248.578 37.0078L248.531 39.3594C248.531 39.4792 248.372 39.6172 248.055 39.7734C247.747 39.9245 247.5 40 247.312 40C247.214 40 247.135 39.9766 247.078 39.9297C246.656 39.5807 246.409 39.0312 246.336 38.2812C246.32 38.1354 246.312 37.9635 246.312 37.7656C246.312 37.3385 246.344 36.7812 246.406 36.0938C246.432 35.8125 246.451 35.6042 246.461 35.4688C246.497 34.9583 246.516 34.4297 246.516 33.8828C246.516 33.7005 246.513 33.5156 246.508 33.3281C246.503 33.2135 246.49 33.0781 246.469 32.9219C246.464 32.875 246.461 32.8281 246.461 32.7812C246.461 32.5312 246.552 32.276 246.734 32.0156C246.917 31.7552 247.237 31.625 247.695 31.625ZM253.758 37.8828C253.93 37.9089 254.427 37.9349 255.25 37.9609C256.146 37.987 256.831 38.026 257.305 38.0781C258.518 38.224 259.125 38.5234 259.125 38.9766C259.125 39.1432 259.044 39.3307 258.883 39.5391C258.659 39.8359 257.99 39.9896 256.875 40H256.695C256.388 40 256.016 39.9896 255.578 39.9688C255.031 39.9427 254.711 39.9297 254.617 39.9297C254.232 39.9297 253.677 39.8906 252.953 39.8125C252.198 39.7292 251.646 39.6849 251.297 39.6797C250.276 39.6589 249.766 39.4167 249.766 38.9531C249.766 38.8177 249.81 38.6641 249.898 38.4922C250.201 37.8932 250.773 37.3411 251.617 36.8359C251.841 36.7057 252.198 36.5052 252.688 36.2344C253.177 35.9635 253.544 35.7552 253.789 35.6094C254.643 35.099 255.305 34.5964 255.773 34.1016C255.674 34.112 255.307 34.1589 254.672 34.2422C254.047 34.3255 253.529 34.3828 253.117 34.4141C252.836 34.4349 252.581 34.4453 252.352 34.4453C251.482 34.4453 250.974 34.3047 250.828 34.0234C250.708 33.7943 250.648 33.5833 250.648 33.3906C250.648 33.1094 250.771 32.8672 251.016 32.6641C251.307 32.4193 251.656 32.2969 252.062 32.2969C252.172 32.2969 252.284 32.3047 252.398 32.3203C252.643 32.3568 252.919 32.375 253.227 32.375C253.841 32.375 254.586 32.2995 255.461 32.1484C256.867 31.9089 257.857 31.7891 258.43 31.7891H258.531C259.255 31.9297 259.617 32.2135 259.617 32.6406C259.617 33.1875 259.01 33.9688 257.797 34.9844C257.141 35.5365 256.289 36.1667 255.242 36.875C254.247 37.5469 253.753 37.8828 253.758 37.8828ZM262.578 35.8984C262.911 35.8984 263.185 35.7812 263.398 35.5469C263.596 35.3333 263.711 35.0677 263.742 34.75C263.747 34.6979 263.75 34.6458 263.75 34.5938C263.75 34.3438 263.688 34.1224 263.562 33.9297C263.396 33.6693 263.151 33.5182 262.828 33.4766C262.786 33.4714 262.747 33.4688 262.711 33.4688C262.503 33.4688 262.341 33.5547 262.227 33.7266C262.107 33.9036 262.047 34.1484 262.047 34.4609C262.047 35.1589 262.224 35.638 262.578 35.8984ZM268.797 35.25C269.177 34.9688 269.464 34.8281 269.656 34.8281C269.849 34.8281 269.945 34.974 269.945 35.2656C269.82 36.1458 269.328 37.0703 268.469 38.0391C267.63 38.9766 266.779 39.5964 265.914 39.8984C265.602 39.9661 265.292 40 264.984 40C263.458 40 262.052 39.1354 260.766 37.4062C260.328 36.8177 260.109 36.0104 260.109 34.9844C260.109 34.5521 260.148 34.0781 260.227 33.5625C260.367 32.6354 261.107 32.0234 262.445 31.7266C262.628 31.6849 262.807 31.6641 262.984 31.6641C263.469 31.6641 263.922 31.8203 264.344 32.1328C264.823 32.487 265.232 33.0156 265.57 33.7188C265.659 34.0365 265.703 34.3333 265.703 34.6094C265.703 35.4271 265.32 36.0859 264.555 36.5859C264.43 36.6693 264.263 36.7474 264.055 36.8203C263.82 36.9036 263.68 36.9557 263.633 36.9766C263.523 37.0339 263.469 37.1068 263.469 37.1953V37.2109C263.479 37.3203 263.57 37.4688 263.742 37.6562C264.107 38.0521 264.526 38.25 265 38.25C265.135 38.25 265.276 38.2344 265.422 38.2031C266.031 38.0677 266.641 37.6406 267.25 36.9219C268.068 35.9688 268.583 35.4115 268.797 35.25ZM285.617 40.8828C285.701 41.5026 285.742 42.0286 285.742 42.4609C285.742 42.8203 285.714 43.112 285.656 43.3359C285.443 44.138 284.836 44.8333 283.836 45.4219C283.346 45.7135 282.826 45.8594 282.273 45.8594C280.93 45.8594 279.586 45.0807 278.242 43.5234C278.081 43.3151 277.969 43.0651 277.906 42.7734C277.88 42.6432 277.867 42.5234 277.867 42.4141C277.867 42.2578 277.893 42.125 277.945 42.0156C278.044 41.8177 278.201 41.7188 278.414 41.7188C278.565 41.7188 278.742 41.7656 278.945 41.8594C279.716 42.224 280.466 42.6276 281.195 43.0703C281.706 43.3828 282.138 43.5391 282.492 43.5391C282.789 43.5391 283.031 43.4271 283.219 43.2031C283.557 42.7917 283.727 42.0417 283.727 40.9531C283.727 39.8073 283.542 38.2917 283.172 36.4062C282.99 36.6354 282.74 36.9974 282.422 37.4922C281.99 38.1641 281.635 38.6354 281.359 38.9062C280.901 39.3646 280.375 39.6432 279.781 39.7422C279.651 39.763 279.526 39.7734 279.406 39.7734C278.943 39.7734 278.573 39.6146 278.297 39.2969C277.911 38.8542 277.719 38.099 277.719 37.0312C277.719 36.4948 277.768 35.875 277.867 35.1719C277.924 34.7448 278.094 34.125 278.375 33.3125C278.797 32.0885 279.24 31.4766 279.703 31.4766C279.99 31.4766 280.25 31.7057 280.484 32.1641L280.5 32.2266C280.5 32.7786 280.367 33.5807 280.102 34.6328C279.846 35.6536 279.719 36.4583 279.719 37.0469C279.719 37.1198 279.721 37.1901 279.727 37.2578C280.174 37.0964 280.62 36.6562 281.062 35.9375C281.323 35.5104 281.677 34.7995 282.125 33.8047C282.547 32.8672 282.865 32.2344 283.078 31.9062C283.427 31.3646 283.779 31.0938 284.133 31.0938C284.201 31.0938 284.268 31.1042 284.336 31.125H284.375C284.484 31.125 284.599 31.1849 284.719 31.3047C285.203 31.7943 285.445 33.7552 285.445 37.1875V38.25C285.445 38.8906 285.453 39.3125 285.469 39.5156C285.49 39.8438 285.539 40.2995 285.617 40.8828ZM289.602 34.8281C289.43 35.1562 289.344 35.5312 289.344 35.9531V36.0625C289.354 36.5365 289.458 36.9375 289.656 37.2656C289.839 37.5729 290.057 37.7266 290.312 37.7266C290.599 37.7266 290.904 37.5339 291.227 37.1484C291.56 36.7526 291.747 36.2448 291.789 35.625C291.794 35.5417 291.797 35.4609 291.797 35.3828C291.797 34.862 291.677 34.4115 291.438 34.0312C291.297 33.8125 291.112 33.7031 290.883 33.7031C290.612 33.7031 290.336 33.8333 290.055 34.0938C289.784 34.3385 289.633 34.5833 289.602 34.8281ZM291.094 31.6797C291.922 31.6797 292.583 31.9922 293.078 32.6172C293.573 33.2422 293.82 34.0781 293.82 35.125C293.82 36.3594 293.503 37.4531 292.867 38.4062C292.148 39.4688 291.232 40 290.117 40C289.898 40 289.674 39.9766 289.445 39.9297C288.565 39.7578 287.927 39.2031 287.531 38.2656C287.266 37.6302 287.133 36.8984 287.133 36.0703C287.133 35.862 287.141 35.6484 287.156 35.4297C287.24 34.2891 287.628 33.3802 288.32 32.7031C289.008 32.0208 289.885 31.6797 290.953 31.6797H291.094ZM302.32 37.7031C302.664 38.6667 302.836 39.3698 302.836 39.8125C302.836 40.3542 302.604 40.625 302.141 40.625C301.823 40.625 301.518 40.5026 301.227 40.2578C300.82 39.9193 300.503 39.1719 300.273 38.0156C300.206 37.6719 300.154 37.4271 300.117 37.2812C299.737 37.9688 299.214 38.5807 298.547 39.1172C297.833 39.6901 297.188 39.9766 296.609 39.9766C296.141 39.9766 295.776 39.776 295.516 39.375C295.24 38.9427 295.102 38.2969 295.102 37.4375C295.102 36.5417 295.271 35.487 295.609 34.2734C296.036 32.7161 296.562 31.9271 297.188 31.9062H297.195C297.424 31.9062 297.602 31.9818 297.727 32.1328C297.852 32.2891 297.914 32.5729 297.914 32.9844C297.914 33.5938 297.781 34.4792 297.516 35.6406C297.312 36.5365 297.211 37.1224 297.211 37.3984C297.211 37.4974 297.224 37.5573 297.25 37.5781C297.276 37.5781 297.312 37.5651 297.359 37.5391C298.073 37.1016 298.602 36.4635 298.945 35.625C299.143 35.1406 299.318 34.4297 299.469 33.4922C299.562 32.9036 299.651 32.5078 299.734 32.3047C299.87 31.9818 300.076 31.8203 300.352 31.8203C300.893 31.8203 301.273 32.1953 301.492 32.9453C301.622 33.3828 301.716 34.1094 301.773 35.125C301.805 35.6615 301.836 36.0208 301.867 36.2031C301.924 36.5208 302.076 37.0208 302.32 37.7031ZM310.062 31.4297C310.354 31.4297 310.651 31.5417 310.953 31.7656C311.224 31.9688 311.359 32.1849 311.359 32.4141C311.359 32.4714 311.349 32.5312 311.328 32.5938C310.255 33.1406 309.359 33.888 308.641 34.8359C307.849 35.8724 307.302 37.0833 307 38.4688C306.781 39.4844 306.466 39.9922 306.055 39.9922C305.878 39.9922 305.682 39.8958 305.469 39.7031C304.943 39.224 304.531 38.2995 304.234 36.9297C303.995 35.8359 303.875 34.7708 303.875 33.7344C303.974 33.3125 304.133 33.0234 304.352 32.8672C304.456 32.7995 304.562 32.7656 304.672 32.7656C304.792 32.7656 304.911 32.8021 305.031 32.875C305.604 33.2292 305.932 34.0547 306.016 35.3516C306.229 34.5651 306.721 33.7448 307.492 32.8906C308.372 31.9167 309.224 31.4297 310.047 31.4297H310.062ZM54.7422 61.7031C55.0859 62.6667 55.2578 63.3698 55.2578 63.8125C55.2578 64.3542 55.026 64.625 54.5625 64.625C54.2448 64.625 53.9401 64.5026 53.6484 64.2578C53.2422 63.9193 52.9245 63.1719 52.6953 62.0156C52.6276 61.6719 52.5755 61.4271 52.5391 61.2812C52.1589 61.9688 51.6354 62.5807 50.9688 63.1172C50.2552 63.6901 49.6094 63.9766 49.0312 63.9766C48.5625 63.9766 48.1979 63.776 47.9375 63.375C47.6615 62.9427 47.5234 62.2969 47.5234 61.4375C47.5234 60.5417 47.6927 59.487 48.0312 58.2734C48.4583 56.7161 48.9844 55.9271 49.6094 55.9062H49.6172C49.8464 55.9062 50.0234 55.9818 50.1484 56.1328C50.2734 56.2891 50.3359 56.5729 50.3359 56.9844C50.3359 57.5938 50.2031 58.4792 49.9375 59.6406C49.7344 60.5365 49.6328 61.1224 49.6328 61.3984C49.6328 61.4974 49.6458 61.5573 49.6719 61.5781C49.6979 61.5781 49.7344 61.5651 49.7812 61.5391C50.4948 61.1016 51.0234 60.4635 51.3672 59.625C51.5651 59.1406 51.7396 58.4297 51.8906 57.4922C51.9844 56.9036 52.0729 56.5078 52.1562 56.3047C52.2917 55.9818 52.4974 55.8203 52.7734 55.8203C53.3151 55.8203 53.6953 56.1953 53.9141 56.9453C54.0443 57.3828 54.138 58.1094 54.1953 59.125C54.2266 59.6615 54.2578 60.0208 54.2891 60.2031C54.3464 60.5208 54.4974 61.0208 54.7422 61.7031ZM58.9297 59.8281C58.9714 60.3125 58.9922 60.6641 58.9922 60.8828V60.9922C59.5339 60.9557 60.0182 60.7422 60.4453 60.3516C60.8672 59.9557 61.1224 59.4818 61.2109 58.9297C61.2214 58.8776 61.2266 58.8281 61.2266 58.7812C61.2266 58.5729 61.1562 58.388 61.0156 58.2266C60.7917 57.9609 60.4427 57.7812 59.9688 57.6875C59.7656 57.6458 59.5833 57.625 59.4219 57.625C59.2448 57.625 59.0964 57.651 58.9766 57.7031C58.8984 57.8177 58.8594 58.0938 58.8594 58.5312C58.8594 58.8646 58.8828 59.2969 58.9297 59.8281ZM63.3594 58.1484C63.474 58.4141 63.5312 58.6875 63.5312 58.9688C63.5312 59.7188 63.125 60.5156 62.3125 61.3594C61.5156 62.1823 60.6484 62.6875 59.7109 62.875C59.3464 62.9479 59.1328 63.0286 59.0703 63.1172C59.0339 63.1641 59.0156 63.2656 59.0156 63.4219C59.0156 63.5052 59.0208 63.6042 59.0312 63.7188C59.0573 64.0156 59.0703 64.2656 59.0703 64.4688L59.0781 64.75C59.0938 66.526 59.1641 67.9323 59.2891 68.9688C59.2943 69.0312 59.2969 69.0911 59.2969 69.1484C59.2969 69.362 59.2422 69.5312 59.1328 69.6562C59.013 69.7917 58.8411 69.8594 58.6172 69.8594C58.3099 69.8594 57.9609 69.7422 57.5703 69.5078C57.1901 69.2786 56.9375 68.7474 56.8125 67.9141C56.75 67.4714 56.7188 66.8151 56.7188 65.9453V65.1484C56.651 62.9818 56.6172 61.2344 56.6172 59.9062C56.6172 58.5312 56.6536 57.6042 56.7266 57.125C56.7734 56.4688 56.8776 56.0339 57.0391 55.8203C57.1536 55.6745 57.3411 55.6016 57.6016 55.6016H57.8281C58.8802 55.6016 59.9349 55.8099 60.9922 56.2266C62.237 56.7109 63.026 57.3516 63.3594 58.1484ZM69.2422 59.6562C68.7161 59.8438 68.224 60.0859 67.7656 60.3828C67.1979 60.7422 66.8698 61.0781 66.7812 61.3906C66.7656 61.4427 66.7578 61.4948 66.7578 61.5469C66.7578 61.6667 66.7995 61.7786 66.8828 61.8828L67.0938 61.9062C67.5521 61.9062 68.013 61.6536 68.4766 61.1484C68.9193 60.6589 69.1745 60.1615 69.2422 59.6562ZM73.1562 61.4922C73.5833 61.9818 73.7969 62.3958 73.7969 62.7344C73.7969 62.8385 73.776 62.9375 73.7344 63.0312C73.4583 63.625 73.1328 63.9219 72.7578 63.9219C72.3047 63.9219 71.6953 63.3125 70.9297 62.0938C70.7422 61.7969 70.6094 61.5964 70.5312 61.4922C70.026 62.5755 69.0391 63.3177 67.5703 63.7188C66.888 63.9062 66.2604 64 65.6875 64C64.875 64 64.4688 63.7578 64.4688 63.2734C64.4219 63.0339 64.3984 62.7943 64.3984 62.5547C64.3984 61.0443 65.375 59.625 67.3281 58.2969C67.4323 58.2292 67.6667 58.1224 68.0312 57.9766C68.9323 57.6172 69.3828 57.3281 69.3828 57.1094C69.3464 56.7656 69.3281 56.2526 69.3281 55.5703C69.3281 55.2266 69.3333 54.8411 69.3438 54.4141C69.3542 53.8776 69.3594 53.4323 69.3594 53.0781C69.3594 52.8125 69.3568 52.599 69.3516 52.4375L69.3438 52.3594C69.3333 52.1823 69.3281 52.013 69.3281 51.8516C69.3281 50.8359 69.4844 50.1667 69.7969 49.8438C70.0104 49.6198 70.2943 49.5078 70.6484 49.5078C70.7057 49.5078 70.763 49.5104 70.8203 49.5156C70.9922 49.5312 71.1536 49.6823 71.3047 49.9688C71.4297 50.2135 71.5104 50.4609 71.5469 50.7109C71.6302 51.2578 71.6719 52.1979 71.6719 53.5312V53.9922C71.6719 54.1693 71.6693 54.4401 71.6641 54.8047C71.6589 55.0078 71.6562 55.2031 71.6562 55.3906C71.6562 56.6042 71.7292 57.5234 71.875 58.1484C72.1042 59.1641 72.5312 60.2786 73.1562 61.4922ZM79.4922 57.9844C79.4609 57.9635 79.4245 57.9531 79.3828 57.9531C79.2109 57.9531 78.974 58.1172 78.6719 58.4453C78.2865 58.8724 77.901 59.4427 77.5156 60.1562C77.1615 60.8229 76.9557 61.3255 76.8984 61.6641C77.4349 61.513 77.9974 61.0078 78.5859 60.1484C79.1641 59.3099 79.4661 58.5885 79.4922 57.9844ZM83.3828 61.7031C83.7578 62.224 83.9453 62.6536 83.9453 62.9922C83.8984 63.2474 83.737 63.474 83.4609 63.6719C83.1901 63.8698 82.9036 63.9688 82.6016 63.9688C82.3516 63.9688 82.1432 63.8906 81.9766 63.7344C81.6328 63.4219 81.3177 62.8125 81.0312 61.9062C80.8125 61.1979 80.599 60.7109 80.3906 60.4453C80.3438 60.5182 80.2734 60.6276 80.1797 60.7734C79.6172 61.6641 79.1562 62.3073 78.7969 62.7031C78.1771 63.3802 77.5286 63.7917 76.8516 63.9375C76.6536 63.9792 76.4635 64 76.2812 64C75.75 64 75.3203 63.8307 74.9922 63.4922C74.6589 63.1536 74.4766 62.6927 74.4453 62.1094C74.4453 60.9323 75.1927 59.487 76.6875 57.7734C78.6042 56.2161 80.0521 55.4375 81.0312 55.4375H81.1094C81.5052 55.4375 81.8151 55.8125 82.0391 56.5625C82.1693 56.9844 82.2917 57.651 82.4062 58.5625C82.4427 58.8802 82.4688 59.0755 82.4844 59.1484C82.5 59.2057 82.5286 59.3411 82.5703 59.5547C82.7109 60.2682 82.8516 60.7812 82.9922 61.0938C83.0547 61.2292 83.1849 61.4323 83.3828 61.7031ZM93.3281 56C93.4167 56.1667 93.4609 56.3255 93.4609 56.4766C93.4609 56.5964 93.4349 56.7083 93.3828 56.8125C93.1745 57.2396 92.6406 57.5312 91.7812 57.6875C91.25 57.7812 90.4401 57.8698 89.3516 57.9531L89.0391 57.9766C89.0339 58.013 89.026 58.1172 89.0156 58.2891C88.9792 58.7266 88.9609 59.0677 88.9609 59.3125C88.9609 59.4167 88.9635 59.5026 88.9688 59.5703C89.026 60.138 89.0625 60.8516 89.0781 61.7109V62.0625C89.0781 63.2552 88.9766 63.8854 88.7734 63.9531C88.763 63.9844 88.6276 64 88.3672 64C87.737 64 87.3958 63.974 87.3438 63.9219C86.9062 63.4948 86.6875 62.5547 86.6875 61.1016C86.6875 60.6589 86.7083 60.1719 86.75 59.6406C86.7552 59.5417 86.7578 59.4453 86.7578 59.3516C86.7578 58.8984 86.6719 58.5781 86.5 58.3906C86.349 58.224 86.0156 58.1406 85.5 58.1406H85.3594C85.276 58.1458 85.1979 58.1484 85.125 58.1484C84.776 58.1484 84.5104 58.1172 84.3281 58.0547C83.9688 57.9297 83.7109 57.6667 83.5547 57.2656V57.2188C83.5547 57.026 83.6198 56.8646 83.75 56.7344C84.0417 56.4323 84.5833 56.2812 85.375 56.2812C85.5521 56.2812 85.7031 56.2891 85.8281 56.3047C85.9271 56.3151 86.0182 56.3203 86.1016 56.3203C86.2995 56.3203 86.4896 56.2839 86.6719 56.2109C86.6094 55.5234 86.5781 54.8464 86.5781 54.1797C86.5781 53.6641 86.5964 53.1562 86.6328 52.6562C86.7526 51.1354 87.0417 50.1224 87.5 49.6172C87.724 49.3672 87.9896 49.2422 88.2969 49.2422H88.375C88.5 49.2422 88.6094 49.2917 88.7031 49.3906C88.9115 49.6146 89.0156 50.2135 89.0156 51.1875C89.0156 51.7604 88.9792 52.4609 88.9062 53.2891C88.8594 53.8307 88.8333 54.1849 88.8281 54.3516C88.8229 54.5391 88.8203 54.7839 88.8203 55.0859V56.0156C88.8203 56.099 88.9792 56.1406 89.2969 56.1406C89.3646 56.1406 89.4401 56.138 89.5234 56.1328C90.0078 56.1068 90.6094 56.0234 91.3281 55.8828C91.3646 55.8724 91.4453 55.8516 91.5703 55.8203C92.013 55.7057 92.3516 55.6484 92.5859 55.6484C92.9609 55.6484 93.2083 55.7656 93.3281 56ZM95.0312 59.8984C95.3646 59.8984 95.638 59.7812 95.8516 59.5469C96.0495 59.3333 96.1641 59.0677 96.1953 58.75C96.2005 58.6979 96.2031 58.6458 96.2031 58.5938C96.2031 58.3438 96.1406 58.1224 96.0156 57.9297C95.849 57.6693 95.6042 57.5182 95.2812 57.4766C95.2396 57.4714 95.2005 57.4688 95.1641 57.4688C94.9557 57.4688 94.7943 57.5547 94.6797 57.7266C94.5599 57.9036 94.5 58.1484 94.5 58.4609C94.5 59.1589 94.6771 59.638 95.0312 59.8984ZM101.25 59.25C101.63 58.9688 101.917 58.8281 102.109 58.8281C102.302 58.8281 102.398 58.974 102.398 59.2656C102.273 60.1458 101.781 61.0703 100.922 62.0391C100.083 62.9766 99.2318 63.5964 98.3672 63.8984C98.0547 63.9661 97.7448 64 97.4375 64C95.9115 64 94.5052 63.1354 93.2188 61.4062C92.7812 60.8177 92.5625 60.0104 92.5625 58.9844C92.5625 58.5521 92.6016 58.0781 92.6797 57.5625C92.8203 56.6354 93.5599 56.0234 94.8984 55.7266C95.0807 55.6849 95.2604 55.6641 95.4375 55.6641C95.9219 55.6641 96.375 55.8203 96.7969 56.1328C97.276 56.487 97.6849 57.0156 98.0234 57.7188C98.112 58.0365 98.1562 58.3333 98.1562 58.6094C98.1562 59.4271 97.7734 60.0859 97.0078 60.5859C96.8828 60.6693 96.7161 60.7474 96.5078 60.8203C96.2734 60.9036 96.1328 60.9557 96.0859 60.9766C95.9766 61.0339 95.9219 61.1068 95.9219 61.1953V61.2109C95.9323 61.3203 96.0234 61.4688 96.1953 61.6562C96.5599 62.0521 96.9792 62.25 97.4531 62.25C97.5885 62.25 97.7292 62.2344 97.875 62.2031C98.4844 62.0677 99.0938 61.6406 99.7031 60.9219C100.521 59.9688 101.036 59.4115 101.25 59.25ZM104.203 58.2812L104.266 58.3359C104.51 58.4036 105.75 58.8464 107.984 59.6641C108.802 59.9661 109.365 60.3073 109.672 60.6875C109.875 60.9375 109.977 61.2161 109.977 61.5234C109.977 61.7943 109.898 62.0859 109.742 62.3984C109.57 62.7318 109.138 63.0391 108.445 63.3203C107.799 63.5807 107.06 63.7708 106.227 63.8906C105.732 63.9635 105.279 64 104.867 64C104.576 64 104.302 63.9818 104.047 63.9453C103.365 63.8516 102.958 63.638 102.828 63.3047C102.698 62.987 102.633 62.6979 102.633 62.4375C102.633 62.2396 102.669 62.0573 102.742 61.8906C102.862 61.6094 103.049 61.4688 103.305 61.4688C103.44 61.4688 103.591 61.5052 103.758 61.5781C104.529 61.9062 105.198 62.0703 105.766 62.0703C106.37 62.0703 106.857 61.8828 107.227 61.5078C107.133 61.5078 106.078 61.1953 104.062 60.5703C102.557 60.1068 101.805 59.4922 101.805 58.7266C101.789 58.6172 101.781 58.5104 101.781 58.4062C101.781 57.6458 102.224 56.9922 103.109 56.4453C103.938 55.9349 104.766 55.6797 105.594 55.6797H105.734C106.031 55.6797 106.305 55.7552 106.555 55.9062C106.789 56.0469 106.951 56.2214 107.039 56.4297C107.076 56.5234 107.094 56.612 107.094 56.6953C107.094 56.8151 107.06 56.9271 106.992 57.0312C106.857 57.2344 106.604 57.3802 106.234 57.4688C105.333 57.6146 104.88 57.6875 104.875 57.6875C104.385 57.8073 104.141 57.9505 104.141 58.1172C104.141 58.1901 104.161 58.2448 104.203 58.2812ZM120.141 53.8672C119.792 53.8464 119.529 53.75 119.352 53.5781C119.206 53.4427 119.133 53.2812 119.133 53.0938V53.0703C119.143 52.7839 119.286 52.5339 119.562 52.3203C119.812 52.1328 120.099 52.0391 120.422 52.0391C120.484 52.0391 120.547 52.0417 120.609 52.0469C120.943 52.0469 121.206 52.1198 121.398 52.2656C121.581 52.401 121.672 52.5807 121.672 52.8047C121.672 53.0755 121.549 53.3177 121.305 53.5312C121.044 53.7656 120.729 53.8828 120.359 53.8828C120.292 53.8828 120.219 53.8776 120.141 53.8672ZM120.664 55.625C121.023 55.625 121.203 55.7786 121.203 56.0859C121.438 57.388 121.555 58.8359 121.555 60.4297C121.555 60.6172 121.552 60.8099 121.547 61.0078L121.5 63.3594C121.5 63.4792 121.341 63.6172 121.023 63.7734C120.716 63.9245 120.469 64 120.281 64C120.182 64 120.104 63.9766 120.047 63.9297C119.625 63.5807 119.378 63.0312 119.305 62.2812C119.289 62.1354 119.281 61.9635 119.281 61.7656C119.281 61.3385 119.312 60.7812 119.375 60.0938C119.401 59.8125 119.419 59.6042 119.43 59.4688C119.466 58.9583 119.484 58.4297 119.484 57.8828C119.484 57.7005 119.482 57.5156 119.477 57.3281C119.471 57.2135 119.458 57.0781 119.438 56.9219C119.432 56.875 119.43 56.8281 119.43 56.7812C119.43 56.5312 119.521 56.276 119.703 56.0156C119.885 55.7552 120.206 55.625 120.664 55.625ZM130.805 61.8359C130.945 62.3672 131.016 62.7969 131.016 63.125C131.016 63.3906 130.969 63.5859 130.875 63.7109C130.724 63.9036 130.482 64 130.148 64C130.018 64 129.872 63.9844 129.711 63.9531C129.268 63.875 128.917 63.3411 128.656 62.3516C128.5 61.7682 128.328 60.7604 128.141 59.3281C128.01 58.349 127.909 57.724 127.836 57.4531C127.055 58.026 126.505 58.6667 126.188 59.375C125.927 59.9583 125.792 60.6849 125.781 61.5547C125.776 61.9297 125.633 62.3568 125.352 62.8359C125.029 63.388 124.682 63.6641 124.312 63.6641C123.995 63.6641 123.711 63.4427 123.461 63C123.31 62.7292 123.234 62.2812 123.234 61.6562C123.234 61.0885 123.297 60.375 123.422 59.5156C123.531 58.7656 123.589 58.2526 123.594 57.9766C123.599 57.4297 123.742 57.0286 124.023 56.7734C124.221 56.5859 124.471 56.4922 124.773 56.4922C124.893 56.4922 125.023 56.5078 125.164 56.5391C125.503 56.612 125.685 56.7292 125.711 56.8906C125.883 56.7083 126.107 56.4036 126.383 55.9766C126.638 55.5807 126.844 55.2917 127 55.1094C127.12 54.974 127.312 54.8229 127.578 54.6562C127.938 54.4375 128.255 54.3281 128.531 54.3281C128.865 54.3281 129.107 54.487 129.258 54.8047C129.69 55.7995 130.06 57.3568 130.367 59.4766C130.482 60.2318 130.573 60.7995 130.641 61.1797C130.661 61.3047 130.716 61.5234 130.805 61.8359ZM140.656 56C140.745 56.1667 140.789 56.3255 140.789 56.4766C140.789 56.5964 140.763 56.7083 140.711 56.8125C140.503 57.2396 139.969 57.5312 139.109 57.6875C138.578 57.7812 137.768 57.8698 136.68 57.9531L136.367 57.9766C136.362 58.013 136.354 58.1172 136.344 58.2891C136.307 58.7266 136.289 59.0677 136.289 59.3125C136.289 59.4167 136.292 59.5026 136.297 59.5703C136.354 60.138 136.391 60.8516 136.406 61.7109V62.0625C136.406 63.2552 136.305 63.8854 136.102 63.9531C136.091 63.9844 135.956 64 135.695 64C135.065 64 134.724 63.974 134.672 63.9219C134.234 63.4948 134.016 62.5547 134.016 61.1016C134.016 60.6589 134.036 60.1719 134.078 59.6406C134.083 59.5417 134.086 59.4453 134.086 59.3516C134.086 58.8984 134 58.5781 133.828 58.3906C133.677 58.224 133.344 58.1406 132.828 58.1406H132.688C132.604 58.1458 132.526 58.1484 132.453 58.1484C132.104 58.1484 131.839 58.1172 131.656 58.0547C131.297 57.9297 131.039 57.6667 130.883 57.2656V57.2188C130.883 57.026 130.948 56.8646 131.078 56.7344C131.37 56.4323 131.911 56.2812 132.703 56.2812C132.88 56.2812 133.031 56.2891 133.156 56.3047C133.255 56.3151 133.346 56.3203 133.43 56.3203C133.628 56.3203 133.818 56.2839 134 56.2109C133.938 55.5234 133.906 54.8464 133.906 54.1797C133.906 53.6641 133.924 53.1562 133.961 52.6562C134.081 51.1354 134.37 50.1224 134.828 49.6172C135.052 49.3672 135.318 49.2422 135.625 49.2422H135.703C135.828 49.2422 135.938 49.2917 136.031 49.3906C136.24 49.6146 136.344 50.2135 136.344 51.1875C136.344 51.7604 136.307 52.4609 136.234 53.2891C136.188 53.8307 136.161 54.1849 136.156 54.3516C136.151 54.5391 136.148 54.7839 136.148 55.0859V56.0156C136.148 56.099 136.307 56.1406 136.625 56.1406C136.693 56.1406 136.768 56.138 136.852 56.1328C137.336 56.1068 137.938 56.0234 138.656 55.8828C138.693 55.8724 138.773 55.8516 138.898 55.8203C139.341 55.7057 139.68 55.6484 139.914 55.6484C140.289 55.6484 140.536 55.7656 140.656 56ZM142.555 58.8281C142.383 59.1562 142.297 59.5312 142.297 59.9531V60.0625C142.307 60.5365 142.411 60.9375 142.609 61.2656C142.792 61.5729 143.01 61.7266 143.266 61.7266C143.552 61.7266 143.857 61.5339 144.18 61.1484C144.513 60.7526 144.701 60.2448 144.742 59.625C144.747 59.5417 144.75 59.4609 144.75 59.3828C144.75 58.862 144.63 58.4115 144.391 58.0312C144.25 57.8125 144.065 57.7031 143.836 57.7031C143.565 57.7031 143.289 57.8333 143.008 58.0938C142.737 58.3385 142.586 58.5833 142.555 58.8281ZM144.047 55.6797C144.875 55.6797 145.536 55.9922 146.031 56.6172C146.526 57.2422 146.773 58.0781 146.773 59.125C146.773 60.3594 146.456 61.4531 145.82 62.4062C145.102 63.4688 144.185 64 143.07 64C142.852 64 142.628 63.9766 142.398 63.9297C141.518 63.7578 140.88 63.2031 140.484 62.2656C140.219 61.6302 140.086 60.8984 140.086 60.0703C140.086 59.862 140.094 59.6484 140.109 59.4297C140.193 58.2891 140.581 57.3802 141.273 56.7031C141.961 56.0208 142.839 55.6797 143.906 55.6797H144.047ZM158.477 58.6641C158.232 59.0286 158.06 59.4297 157.961 59.8672C157.919 60.0443 157.898 60.2057 157.898 60.3516C157.898 60.6536 157.992 60.8802 158.18 61.0312C158.195 61.0417 158.216 61.0469 158.242 61.0469C158.612 61.0469 159.458 60.0286 160.781 57.9922C160.964 57.7109 161.073 57.5417 161.109 57.4844C161.073 57.4115 160.966 57.375 160.789 57.375C160.456 57.375 160.06 57.4922 159.602 57.7266C159.091 57.987 158.716 58.2995 158.477 58.6641ZM160.891 55.7188C161.339 55.7188 161.812 55.7891 162.312 55.9297C163.057 56.1432 163.43 56.4505 163.43 56.8516V56.9219L163.375 56.9609C163.182 57.0911 163.086 57.4609 163.086 58.0703C163.086 58.4036 163.115 58.8099 163.172 59.2891C163.214 59.6276 163.237 59.8568 163.242 59.9766L163.25 60.2969C163.286 61.2865 163.305 62.1771 163.305 62.9688C163.305 64.1771 163.263 65.1562 163.18 65.9062C163.091 66.7344 162.896 67.4583 162.594 68.0781C162.13 69.0417 161.466 69.6146 160.602 69.7969C160.414 69.8385 160.219 69.8594 160.016 69.8594C159.234 69.8594 158.513 69.5938 157.852 69.0625C157.529 68.8073 157.255 68.487 157.031 68.1016C156.922 67.9036 156.826 67.7448 156.742 67.625C156.299 66.9531 156.078 66.3958 156.078 65.9531C156.078 65.625 156.201 65.362 156.445 65.1641C156.513 65.1276 156.578 65.1094 156.641 65.1094C157.01 65.1094 157.398 65.4531 157.805 66.1406C158.06 66.5625 158.372 66.9245 158.742 67.2266C159.154 67.5599 159.534 67.7266 159.883 67.7266C160.367 67.7266 160.724 67.3906 160.953 66.7188C161.172 66.0625 161.281 65.1276 161.281 63.9141C161.281 63.487 161.268 63.026 161.242 62.5312C161.201 61.8177 161.18 61.2344 161.18 60.7812C161.18 60.6198 161.182 60.474 161.188 60.3438C161.026 60.5365 160.815 60.8516 160.555 61.2891C159.945 62.3047 159.331 62.9089 158.711 63.1016C158.544 63.1484 158.375 63.1719 158.203 63.1719C157.672 63.1719 157.195 62.9453 156.773 62.4922C156.383 62.0703 156.143 61.5833 156.055 61.0312C156.013 60.7656 155.992 60.5052 155.992 60.25C155.992 59.1927 156.357 58.237 157.086 57.3828C158.034 56.2734 159.237 55.7188 160.695 55.7188H160.891ZM171.141 55.4297C171.432 55.4297 171.729 55.5417 172.031 55.7656C172.302 55.9688 172.438 56.1849 172.438 56.4141C172.438 56.4714 172.427 56.5312 172.406 56.5938C171.333 57.1406 170.438 57.888 169.719 58.8359C168.927 59.8724 168.38 61.0833 168.078 62.4688C167.859 63.4844 167.544 63.9922 167.133 63.9922C166.956 63.9922 166.76 63.8958 166.547 63.7031C166.021 63.224 165.609 62.2995 165.312 60.9297C165.073 59.8359 164.953 58.7708 164.953 57.7344C165.052 57.3125 165.211 57.0234 165.43 56.8672C165.534 56.7995 165.641 56.7656 165.75 56.7656C165.87 56.7656 165.99 56.8021 166.109 56.875C166.682 57.2292 167.01 58.0547 167.094 59.3516C167.307 58.5651 167.799 57.7448 168.57 56.8906C169.451 55.9167 170.302 55.4297 171.125 55.4297H171.141ZM175.32 58.8281C175.148 59.1562 175.062 59.5312 175.062 59.9531V60.0625C175.073 60.5365 175.177 60.9375 175.375 61.2656C175.557 61.5729 175.776 61.7266 176.031 61.7266C176.318 61.7266 176.622 61.5339 176.945 61.1484C177.279 60.7526 177.466 60.2448 177.508 59.625C177.513 59.5417 177.516 59.4609 177.516 59.3828C177.516 58.862 177.396 58.4115 177.156 58.0312C177.016 57.8125 176.831 57.7031 176.602 57.7031C176.331 57.7031 176.055 57.8333 175.773 58.0938C175.503 58.3385 175.352 58.5833 175.32 58.8281ZM176.812 55.6797C177.641 55.6797 178.302 55.9922 178.797 56.6172C179.292 57.2422 179.539 58.0781 179.539 59.125C179.539 60.3594 179.221 61.4531 178.586 62.4062C177.867 63.4688 176.951 64 175.836 64C175.617 64 175.393 63.9766 175.164 63.9297C174.284 63.7578 173.646 63.2031 173.25 62.2656C172.984 61.6302 172.852 60.8984 172.852 60.0703C172.852 59.862 172.859 59.6484 172.875 59.4297C172.958 58.2891 173.346 57.3802 174.039 56.7031C174.727 56.0208 175.604 55.6797 176.672 55.6797H176.812ZM188.039 61.7031C188.383 62.6667 188.555 63.3698 188.555 63.8125C188.555 64.3542 188.323 64.625 187.859 64.625C187.542 64.625 187.237 64.5026 186.945 64.2578C186.539 63.9193 186.221 63.1719 185.992 62.0156C185.924 61.6719 185.872 61.4271 185.836 61.2812C185.456 61.9688 184.932 62.5807 184.266 63.1172C183.552 63.6901 182.906 63.9766 182.328 63.9766C181.859 63.9766 181.495 63.776 181.234 63.375C180.958 62.9427 180.82 62.2969 180.82 61.4375C180.82 60.5417 180.99 59.487 181.328 58.2734C181.755 56.7161 182.281 55.9271 182.906 55.9062H182.914C183.143 55.9062 183.32 55.9818 183.445 56.1328C183.57 56.2891 183.633 56.5729 183.633 56.9844C183.633 57.5938 183.5 58.4792 183.234 59.6406C183.031 60.5365 182.93 61.1224 182.93 61.3984C182.93 61.4974 182.943 61.5573 182.969 61.5781C182.995 61.5781 183.031 61.5651 183.078 61.5391C183.792 61.1016 184.32 60.4635 184.664 59.625C184.862 59.1406 185.036 58.4297 185.188 57.4922C185.281 56.9036 185.37 56.5078 185.453 56.3047C185.589 55.9818 185.794 55.8203 186.07 55.8203C186.612 55.8203 186.992 56.1953 187.211 56.9453C187.341 57.3828 187.435 58.1094 187.492 59.125C187.523 59.6615 187.555 60.0208 187.586 60.2031C187.643 60.5208 187.794 61.0208 188.039 61.7031ZM192.227 59.8281C192.268 60.3125 192.289 60.6641 192.289 60.8828V60.9922C192.831 60.9557 193.315 60.7422 193.742 60.3516C194.164 59.9557 194.419 59.4818 194.508 58.9297C194.518 58.8776 194.523 58.8281 194.523 58.7812C194.523 58.5729 194.453 58.388 194.312 58.2266C194.089 57.9609 193.74 57.7812 193.266 57.6875C193.062 57.6458 192.88 57.625 192.719 57.625C192.542 57.625 192.393 57.651 192.273 57.7031C192.195 57.8177 192.156 58.0938 192.156 58.5312C192.156 58.8646 192.18 59.2969 192.227 59.8281ZM196.656 58.1484C196.771 58.4141 196.828 58.6875 196.828 58.9688C196.828 59.7188 196.422 60.5156 195.609 61.3594C194.812 62.1823 193.945 62.6875 193.008 62.875C192.643 62.9479 192.43 63.0286 192.367 63.1172C192.331 63.1641 192.312 63.2656 192.312 63.4219C192.312 63.5052 192.318 63.6042 192.328 63.7188C192.354 64.0156 192.367 64.2656 192.367 64.4688L192.375 64.75C192.391 66.526 192.461 67.9323 192.586 68.9688C192.591 69.0312 192.594 69.0911 192.594 69.1484C192.594 69.362 192.539 69.5312 192.43 69.6562C192.31 69.7917 192.138 69.8594 191.914 69.8594C191.607 69.8594 191.258 69.7422 190.867 69.5078C190.487 69.2786 190.234 68.7474 190.109 67.9141C190.047 67.4714 190.016 66.8151 190.016 65.9453V65.1484C189.948 62.9818 189.914 61.2344 189.914 59.9062C189.914 58.5312 189.951 57.6042 190.023 57.125C190.07 56.4688 190.174 56.0339 190.336 55.8203C190.451 55.6745 190.638 55.6016 190.898 55.6016H191.125C192.177 55.6016 193.232 55.8099 194.289 56.2266C195.534 56.7109 196.323 57.3516 196.656 58.1484ZM200.094 58.2812L200.156 58.3359C200.401 58.4036 201.641 58.8464 203.875 59.6641C204.693 59.9661 205.255 60.3073 205.562 60.6875C205.766 60.9375 205.867 61.2161 205.867 61.5234C205.867 61.7943 205.789 62.0859 205.633 62.3984C205.461 62.7318 205.029 63.0391 204.336 63.3203C203.69 63.5807 202.951 63.7708 202.117 63.8906C201.622 63.9635 201.169 64 200.758 64C200.466 64 200.193 63.9818 199.938 63.9453C199.255 63.8516 198.849 63.638 198.719 63.3047C198.589 62.987 198.523 62.6979 198.523 62.4375C198.523 62.2396 198.56 62.0573 198.633 61.8906C198.753 61.6094 198.94 61.4688 199.195 61.4688C199.331 61.4688 199.482 61.5052 199.648 61.5781C200.419 61.9062 201.089 62.0703 201.656 62.0703C202.26 62.0703 202.747 61.8828 203.117 61.5078C203.023 61.5078 201.969 61.1953 199.953 60.5703C198.448 60.1068 197.695 59.4922 197.695 58.7266C197.68 58.6172 197.672 58.5104 197.672 58.4062C197.672 57.6458 198.115 56.9922 199 56.4453C199.828 55.9349 200.656 55.6797 201.484 55.6797H201.625C201.922 55.6797 202.195 55.7552 202.445 55.9062C202.68 56.0469 202.841 56.2214 202.93 56.4297C202.966 56.5234 202.984 56.612 202.984 56.6953C202.984 56.8151 202.951 56.9271 202.883 57.0312C202.747 57.2344 202.495 57.3802 202.125 57.4688C201.224 57.6146 200.771 57.6875 200.766 57.6875C200.276 57.8073 200.031 57.9505 200.031 58.1172C200.031 58.1901 200.052 58.2448 200.094 58.2812ZM208.445 61.5391C208.924 61.5391 209.31 61.6719 209.602 61.9375C209.862 62.1823 209.992 62.4714 209.992 62.8047C209.992 63.1484 209.859 63.4323 209.594 63.6562C209.323 63.8854 208.961 64 208.508 64C208.362 64 208.214 63.987 208.062 63.9609C207.766 63.9036 207.534 63.7474 207.367 63.4922C207.237 63.2839 207.172 63.0547 207.172 62.8047V62.7266C207.193 62.4297 207.305 62.1719 207.508 61.9531C207.742 61.7031 208.055 61.5651 208.445 61.5391Z" fill="#00004F"/>
<path d="M15.7092 18C17.2764 16.8127 25.0883 12.2335 25.0883 9.76471C25.0883 9.64228 16.502 4.26427 15.7092 4" stroke="#00004F" stroke-width="2" stroke-linecap="round"/>
<path d="M25.0882 10.3366C19.4822 10.3366 17.4706 10.3366 12.5294 10.3366C9.96032 10.3366 7.707 10.5883 5.14051 10.5883C3.74948 10.5883 2.38467 10.7942 0.999991 10.7942" stroke="#00004F" stroke-width="2" stroke-linecap="round"/>
</svg>
